<?xml version="1.0" encoding="UTF-8"?><svg id="Layer_1" xmlns="http://www.w3.org/2000/svg" viewBox="0 0 612 792"><defs><style>.cls-1{fill:#fff;}</style></defs><path class="cls-1" d="M387.19,140.33c.82-.52,1.59-1.15,2.47-1.54,.9-.39,1.94-.48,2.87-.81,3.09-1.1,5.97-1.05,8.79,.94,.88,.62,2.22,.79,3.36,.81,4.57,.08,8.08,1.76,10.04,6.1,1.23,2.73,2.49,5.44,3.85,8.11,.68,1.34,1.61,2.56,2.67,4.21,.93-1.15,1.72-1.88,2.21-2.78,1.03-1.91,1.91-3.9,2.83-5.88,.76-1.65,1.48-3.31,2.23-4.96,1.76-3.84,5.09-5.36,8.98-5.61,1.8-.11,3.36-.56,4.8-1.44,1.99-1.22,4.05-1.52,6.24-.95,2.62,.69,5.21,1.47,8.11,2.3,.65-.91,1.63-1.88,3.29-.92,.25,.14,.94-.34,1.34-.64,1.47-1.09,3.06-1.48,5.05-1.05-.96,2.23-2.9,4.17-1.62,6.99,2.19-.57,4.21-2.07,6.68-1.58-.34,1.51-.86,2.86-.88,4.22-.02,1.42,.39,2.86,.69,4.28,.1,.49,.31,1.15,.68,1.34,1.52,.79,.93,1.6,.29,2.63-.51,.82-.9,1.78-1.06,2.73-.61,3.56-2.05,6.68-4.26,9.55-3.31,4.29-7.37,7.73-11.61,11.04-3.22,2.52-6.84,4.23-10.74,5.09-3.97,.87-8.07,1.16-12.12,1.68-.12,.02-.27-.18-.59-.42l1.66-1.05c-.82-.98-1.83-.64-2.79-.65-1.01-.02-2.39,.18-1.85-1.48,2.38-.52,4.81-1.05,7.24-1.58l-.08-.59c-.65,.04-1.33,0-1.95,.14-.97,.23-1.73,.35-2.16-.89-.11-.33-1.06-.58-1.57-.51-1.43,.21-2.83,.6-4.28,.94v1.65l-1.53-.4c-.06,.87-.18,1.77-.19,2.66-.18,14.07-.19,28.16-.64,42.22-.12,3.71,1.65,5.46,4.31,7.02,1,.59,2.13,.96,3.48,1.56,.83-.84,1.98-1.66,2.66-2.75,2.63-4.22,6.62-6.89,10.6-9.58,5.37-3.63,11.32-6.1,17.35-8.31,3.72-1.36,7.58-2.41,11.68-1.74,1.33,.22,2.73-.04,4.08,.09,2.2,.22,4.43,.53,4.96,3.3,2.36,1.97,3.43,4.51,3.42,7.56,0,.16,.4,.32,.67,.54,1.23-1.06,2.49-2.08,3.66-3.19,1.22-1.16,2.48-2.13,4.29-2,1.29,.09,2.01-.75,2.59-1.69,1.32-2.15,2.55-4.37,3.9-6.5,.9-1.41,1.57-3.14,3.67-3.27,.26-.02,.66-.43,.71-.71,.55-2.96,2.79-5.03,3.96-7.66,.43-.96,.8-1.98,.97-3.01,.29-1.84,1.06-2.55,2.9-2.36,2.38,.25,5.01,2.42,6.02,5.09,.64-.68,1.24-1.31,1.83-1.94,1.28-1.38,2.38-3,3.87-4.08,2.89-2.09,5.5-4.78,9.34-5.21,1.15-.13,2.35-.47,3.46-.29,1.09,.17,1.76,.06,2.15-.99,.69-1.84,1.7-3.11,3.99-2.96,.6,.04,1.31-.85,1.88-1.4,1.52-1.46,3.24-2.27,5.4-1.85,2.17,.42,2.96,1.48,2.6,3.66-.1,.61-.32,1.25-.65,1.77-.91,1.46-.91,2.64,.28,4.09,1.34,1.64,.95,3.54-.81,5.69-1.2,1.46-2.57,2.79-4,4.32,1.23,1.28,2.17,2.87,1.4,4.92-.94,2.54-2.48,4.59-4.92,5.88-.71,.37-1.48,.63-2.22,.93,1.09,2.74,.84,3.31-1.27,5.2-3.2,2.86-7.1,3.8-11.16,4.39-2.59,.37-5.19,.64-7.79,.97-.23,.03-.44,.23-.62,.77,1.67-.13,3.49,.11,4.99-.47,2.81-1.09,5.33-.2,7.89,.54,1.56,.45,1.8,1.58,.89,2.93-.25,.37-.53,.71-.91,1.21,1.21,.99,2.49,1.52,3.93,1.73,1.9,.28,3.54,.95,4,3.08,.45,2.08-.35,3.9-1.86,5.11-1.75,1.4-3.81,2.42-5.78,3.53-1.41,.79-2.96,1.34-4.32,2.21-3.21,2.05-6.44,2.14-9.78,.41-.4-.21-.82-.38-1.24-.55-.16-.06-.35-.06-.73-.13-.09,.48-.16,.97-.26,1.44-.44,2.08-1.8,3.4-3.74,3.93-2.5,.68-5.01,1.4-7.71,.63-2.15-.61-4.42-.84-6.83-1.27-.04,.8-.13,1.5-.11,2.2,.09,2.09,.12,2.11,2.17,2.19,2.75,.11,3.77,1.19,4.24,3.9,.53,3.13-.97,5.28-3.17,7.05-2.34,1.88-4.95,3.36-7.99,3.79-1,.14-1.33,.61-1.42,1.6-.24,2.77-1.53,3.96-4.22,4.22-1.79,.17-3.58,.53-5.37,.61-1.98,.09-3.97-.16-5.94-.06-1.23,.06-2.5,.35-3.66,.79-3.63,1.39-6.61,3.67-8.91,6.83-.52,.71-1.14,1.4-1.85,1.9-1.74,1.22-1.78,1.18-1.22,3.08,.76,2.6,1.54,5.2,2.3,7.81,1.87,6.4,3.74,12.81,5.61,19.21,.09,.32,.28,.62,.57,1.26,1.19-1.77,2.25-3.29,3.26-4.84,2.35-3.6,5.37-6.61,8.62-9.35,4.07-3.44,8.18-6.86,12.52-9.94,3.37-2.39,7.14-4.21,10.71-6.34,4.5-2.68,9.36-4.12,14.56-4.72,1.89-.22,3.7-.59,5.58-.08,2.17,.59,4.07-.37,5.99-1.13,.25-.1,.43-.34,.67-.47,2.49-1.28,3.84-.49,3.84,2.25,0,.26-.05,.51-.08,.77,3.48,1.33,6.88,2.75,10.36,3.94,1.84,.63,3.73,.29,5.54-.53,.57-.26,1.61-.42,1.92-.11,.37,.38,.4,1.35,.23,1.98-.81,3.1-2.08,5.98-4.36,8.33-.54,.56-.98,1.21-1.57,1.96,4.99,2.32,9.44,1.5,13.9-1.3,1.01,2.55-.2,4.52-.94,6.56-.82,2.28-2.86,3.37-4.6,4.61,1.57,4.91,.62,5.76-3.34,6.07-.03,.08-.09,.17-.07,.23,1.82,4.74,1.71,9.76,2.16,14.7,.29,3.17-.38,6.12-1.58,8.98-.63,1.49-1.53,2.77-2.91,3.83-.95,.73-1.1,2.56-2.07,3.17-1.38,.88-1.54,2.12-1.92,3.36-.18,.59,0,1.29-.2,1.88-2.16,6.53-5.54,11.82-12.75,13.92-4.7,1.37-9.5,2.14-14.24,3.21-2.89,.66-5.75,1.48-8.6,2.32-2.74,.8-5.25,2.01-6.9,4.51-.15,.22-.34,.48-.57,.58-.47,.2-1.18,.57-1.42,.38-.42-.31-.84-1.05-.75-1.52,.57-3,1.27-5.97,1.94-8.94,.08-.34,.16-.69,.34-1.44-2.48,.44-4.78,.72-7,1.28-3.06,.77-6.1,1.67-9.09,2.67-2.23,.74-2.31,1.02-1.69,3.16,2.53,8.66,5.11,17.31,7.63,25.98,2.22,7.63,4.32,15.29,6.61,22.89,1.59,5.27,3.23,10.54,5.18,15.68,1.61,4.22,4.68,7.55,8.09,10.43,2,1.69,4.58,2.57,7.28,2.65,2.36,.07,4.73,.07,7.09,0,2.66-.08,4.62-1.22,5.71-3.79,1.61-3.82,3.44-7.55,4.96-11.41,.98-2.5,1.48-5.19,2.36-7.73,.47-1.35,1.18-2.64,1.97-3.84,.48-.73,1.23-1.37,1.99-1.81,2.09-1.21,4.12-.37,4.5,1.99,.22,1.39,.12,2.91-.2,4.29-2.77,11.99-7.41,23.24-13.52,33.91-5.26,9.19-10.39,18.45-15.61,27.66-.76,1.33-1.68,2.57-2.37,3.63-1.17,.16-2.09,.31-3.02,.41-3.85,.4-7.59,.04-11.19-1.47-4.74-1.99-8.87-4.91-12.53-8.48-7.42-7.22-13.06-15.74-17.93-24.8-6.67-12.4-11.68-25.47-15.53-38.99-.44-1.53-1.18-2.97-1.83-4.55h-29.43c-.61,1.77-.79,17.38-.19,21.78h8.35c-.34,1.03-.55,1.76-.82,2.46-3.3,8.45-6.56,16.91-8.54,25.79-.74,3.35-1.19,6.76-1.82,10.43-.32-.63-.7-1.1-.81-1.62-2.39-11.91-7.09-23.01-11.96-34.05-.29-.66-.6-1.32-.88-1.99-.07-.16-.08-.35-.19-.8h9.02c.63-2.21,.82-16.24,.37-21.64-1.83-.58-19.19-.75-23.02-.17,.43,1.03,.76,2.02,1.23,2.94,4.79,9.39,8.67,19.16,11.98,29.15,3.83,11.54,6.75,23.3,8.66,35.31,1.12,7.06,1.84,14.16,2.36,21.3,.53,7.26,.41,14.51,.26,21.75-.11,5.68-.9,11.35-1.61,17-.97,7.73-2.65,15.34-4.92,22.8-4.11,13.47-10.1,25.97-18.97,37.04-4.65,5.8-10.37,9.97-17.11,13.05-9.47,4.33-19.39,7.07-29.56,9.03-2.48,.48-5.07,.4-7.56,.84-5.48,.95-10.83-.43-16.24-.73-4.87-.27-9.7-1.08-14.56-1.56-2.89-.28-5.79-.52-8.68-.56-6.36-.08-12.72-.16-19.07,0-10.08,.27-19.76,2.44-28.99,6.56-6.79,3.03-12.94,6.97-18.05,12.41-3.92,4.18-6.82,8.96-7.9,14.65-1.25,6.6,.82,12.36,4.8,17.54,1.14,1.49,2.47,2.83,3.49,4.6-.52-.18-1.08-.29-1.54-.56-6.19-3.68-11.26-8.54-15.21-14.54-5.99-9.09-8.12-19.14-6.85-29.84,1.03-8.75,4.65-16.54,10.08-23.44,7.41-9.42,17.03-15.74,28.45-19.13,5.04-1.5,10.4-1.74,15.67-1.29,11.29,.95,21.87,4.21,31.45,10.4,2.91,1.88,5.72,3.92,7.91,6.61,3.84,4.72,8.88,7.77,14.29,10.16,9.21,4.06,18.89,5.79,28.95,4.83,5.19-.5,10.14-1.96,14.66-4.64,1.91-1.13,3.37-2.69,4.59-4.55,2.27-3.46,3.67-7.26,4.85-11.18,2.26-7.55,4.69-15.05,6.76-22.65,1.31-4.79,2.07-9.73,3.1-14.6,1.54-7.29,1.65-14.74,2.29-22.12,.55-6.31,.27-12.7,.35-19.05,.09-7.17-.76-14.28-1.48-21.4-1.13-11.28-3.12-22.42-5.77-33.42-2.17-8.97-4.97-17.79-7.51-26.67-.14-.51-.45-.97-.88-1.88-.79,2.13-1.39,3.91-2.1,5.64-4.14,10.13-7.58,20.5-10.3,31.1-.29,1.13-.6,1.4-1.84,1.1-3.63-.88-7.34-.96-11.18-.59-.07,1.4-.04,2.74-.23,4.05-.47,3.2-1.96,6.01-3.81,8.6-8.97,12.52-20.85,21.21-35.2,26.64-4.87,1.84-9.63,1.97-14.49-.18-10.3-4.54-18-11.72-22.66-21.99-1.27-2.79-2.04-5.8-1.89-8.96,.05-1.06,0-2.12,0-3.6-2.39,1.14-4.33,2.04-6.26,2.97-10.76,5.21-21.51,10.42-32.28,15.62-9.7,4.68-19.4,9.37-29.11,14.02-7.51,3.59-14.97,7.31-22.6,10.63-3.44,1.5-7.2,2.37-10.91,3.11-1.45,.29-3.27-.29-4.67-.98-2.4-1.17-4.24-3.09-5.33-5.59-1.42-3.26,.18-7,3.5-8.15,.36-.13,.97-.05,1.23,.18,.25,.23,.3,.79,.28,1.19-.02,.34-.28,.66-.44,.98-1.23,2.57-.84,4.88,1.03,7.02,1.97,2.26,5.11,2.53,7.73,.61,2.91-2.13,3.34-5.21,2.63-8.29-.89-3.89-2.94-7.05-6.87-8.88-6.87-3.2-13.94-5.42-21.49-6.38-7.29-.93-14.4-.2-21.53,1.14-6.94,1.3-13.38,3.8-19.34,7.56-8.98,5.66-14.74,13.8-18.03,23.72-1.28,3.85-2.04,7.92-1.66,12.01,.79,8.42,3.69,15.89,9.73,22.12,6.2,6.4,13.81,10.46,21.77,14.04,5.72,2.57,11.71,4.37,17.85,5.55,5.41,1.04,10.92,1.59,16.46,1.5,7.28-.12,14.41-1.21,21.33-3.46,9.13-2.96,17.16-7.79,23.58-14.95,3.69-4.11,6.7-8.75,8.43-14.1,.27-.82,.63-1.49,1.69-1.41,1.01,.07,1.7,.93,1.08,1.6-2.53,2.76-3.05,6.5-4.94,9.59-4.22,6.9-9.85,12.27-16.69,16.41-5.36,3.25-11.17,5.52-17.26,7.08-6,1.54-12.09,2.19-18.27,2.23-6.64,.05-13.23-.41-19.68-1.94-8.93-2.12-17.56-5.14-25.28-10.23-3.85-2.53-7.72-5.12-11.13-8.19-3.63-3.27-6.3-7.44-8.49-11.85-2.92-5.88-4.67-12.07-5.57-18.59-.64-4.63-.7-9.26-.32-13.81,.5-6.01,1.92-11.91,4.03-17.63,4.23-11.45,11.04-21.1,20.08-29.19,4.13-3.7,8.99-6.38,14.09-8.57,6.4-2.75,12.99-5.05,19.77-6.62,6.45-1.5,13.05-2.06,19.69-1.87,9.92,.28,19.61,1.93,29.05,4.98,6.05,1.95,11.8,4.58,17.35,7.72,3.53,2,7.26,3.62,10.9,5.43,1.78,.88,3.51,1.91,5.34,2.66,3.68,1.5,7.42,2.87,11.14,4.26,3.23,1.2,6.53,.75,9.63-.22,9.06-2.83,18.02-5.98,27.06-8.89,2.54-.82,2.09-1.21,2.09-3.09-.04-10.17-.16-20.34-.15-30.51,.01-15.71,.1-31.42,.16-47.13,0-.98,0-1.96,0-3.35-2.41,1.1-4.44,2-6.46,2.95-14.19,6.64-28.38,13.3-42.58,19.92-9.34,4.36-18.69,8.68-28.06,12.98-.75,.34-1.19,.71-1.26,1.55-.07,.72-.36,1.42-.39,2.13-.21,4.52-.23,9.04-.58,13.55-.46,6.03,2.25,10.43,6.73,14.02,1.41,1.13,2.9,2.17,4.38,3.21,.44,.31,.96,.49,1.44,.73l-.47,.61c-.33,.05-.7,.21-.99,.12-1.91-.55-3.83-1.09-5.71-1.74-18.5-6.43-37.25-12.16-55.62-18.98l.07-.7c1.44-.12,2.87-.23,4.76-.39-1.39-2.37-2.64-4.47-3.85-6.6-.76-1.32-1.58-2.62-2.15-4.02-.28-.7-.29-1.69,0-2.37,.21-.5,1.08-.76,1.7-1.05,1.57-.74,1.55-.88,.9-2.7-1.11-3.13-3.32-5.53-5.17-8.16-.31-.44-.83-.87-.87-1.33-.27-2.9-2.71-3.76-4.71-4.85-1.6-.87-2.41-2-2.72-3.7-.27-1.46,.36-2.43,1.91-2.55,1.16-.09,2.34-.02,3.63-.02-1.58-2.89-4.85-5.79-7.6-6.75-2.09-.73-4-1.65-5.06-3.85-1.7,.47-3.15-.08-4.66-.8-1.87-.89-2.7-2.29-2.8-4.22-.09-1.85,1.2-2.7,2.65-3.38,.29-.14,.55-.36,1.04-.7-.63-.51-1.04-.98-1.55-1.24-2.65-1.33-5.38-2.45-8.38-2.73-1.07-.1-2.12-.48-3.19-.5-5.65-.11-10.46,1.59-13.78,6.51-1.12,1.65-2.71,1.54-3.89-.09-.26-.35-.54-.69-.96-1.21-.67,1.56-1.51,2.44-3.28,2.54-1.21,.07-2.38,1.12-3.54,1.79-.38,.22-.63,.65-.99,.93-1.17,.92-2.37,1.39-3.51-.03-1.3,1.55-1.43,3.26-1.6,5.1-.37,4.07,.85,7.42,3.67,10.32,1.18,1.21,1.15,2.37-.17,3.44-.85,.69-.87,1.44-.55,2.11,.56,1.2,1.34,2.32,2.12,3.4,.47,.66,1.21,1.12,1.68,1.78,1.1,1.54,.36,3.24-1.46,3.7-3.22,.82-5.8-.38-8.09-2.65l-.84,1.63c-1.04-.52-2.04-1.02-3.48-1.74,.71,1.87,1.26,3.32,1.81,4.77,.35,.92,.67,1.84,1.05,2.75,.13,.3,.33,.64,.59,.81,.59,.39,1.36,.58,1.82,1.07,.37,.4,.4,1.12,.64,1.87,1.82-1.07,3.4-.64,4.92,.38,2.07,1.4,4.19,2.74,6.23,4.19,1.47,1.04,2.9,2.03,4.66,2.62,1.39,.47,2.45,.29,3.57-.44,.67-.44,1.31-.95,2.02-1.33,1.94-1.04,2.79-.87,4.36,.74,.72-1.02,1.42-2.06,2.18-3.06,.89-1.17,2.2-1.33,3.44-.91,1.14,.38,1.4,1.54,1.52,2.66,.06,.62,.11,1.24,.17,1.98,3.11-1.08,4.08-3.47,4.43-6.29,.13-1.07,.3-2.13,.47-3.19,.34-2.06-.24-3.96-1.29-5.67-1.1-1.78-4.3-2.23-5.99-.79-1.13,.96-2.88,1.79-1.74,3.97,.4,.76-.73,1.8-2.11,2.01-2.77,.42-6.41-.32-8.28-3.43-1.33-2.21-2.43-4.61-.94-7.3,.51-.92,.37-1.59-.64-2.47-2.54-2.24-3.15-5.37-2.82-8.63,.13-1.23,.54-2.49,1.12-3.58,.44-.81,1.28-1.51,2.1-1.98,.75-.43,1.38,.19,1.32,1.09,0,.09,0,.19-.03,.27-.38,1.01-1.04,2.16,.02,2.99,1.1,.86,2.39,1.77,3.71,2.01,2.47,.46,5.01,.51,7.53,.64,6.86,.35,11.38,3.86,12.75,10.21,.43,2,.41,4.1,.6,6.16,.05,.52,.08,1.05,.29,1.61,.71-1.7,.85-3.72,3.32-4.51-.74-1.01-1.3-1.87-1.95-2.64-1.5-1.77-1.59-3.01-.48-5.07,.44-.81,.59-1.78,.93-2.86-.84-.19-1.37-.24-1.83-.44-1.42-.62-2.32-1.57-2.29-3.3,.01-.83-.37-1.7-.73-2.47-.15-.32-.87-.72-1.08-.61-1.63,.87-2.06-.4-2.61-1.39-.63-1.13-.26-2.26,.8-2.67,.71-.28,2.84,.71,2.81,1.45-.11,2.6,1.44,3.09,3.58,3.32,2.17,.23,3.05,1.5,2.38,3.61-.43,1.33-.25,2.4,.06,3.65,.19,.76,.46,1.18,1.09,1.66,2.11,1.62,2.24,2.9,.79,5.09-.35,.52-.7,1.04-1.04,1.57-.04,.07-.02,.18-.03,.27,.77,.36,1.78,.54,2.24,1.15,.42,.55,.23,1.56,.31,2.36,.22,2.27-.46,4.25-1.89,6.03-.61,.76-1.09,1.62-1.78,2.65,.66,.09,1.22,.22,1.78,.23,1.51,.02,2.75,.3,3.65,1.8,.43,.72,1.59,1.1,2.49,1.41,3.57,1.23,4.48,2.39,4.69,6.36,1.66,.44,3.36,.91,5.07,1.35,2.71,.7,4.47,2.39,4.87,5.14,.26,1.8,1.17,3.57,.28,5.54-.41,.91-.06,2.15-.11,3.24-.04,.95,.36,2.16-.86,2.63-1.08,.41-1.56-.67-2.22-1.24-1.23-1.05-2.33-2.32-3.69-3.15-1.9-1.16-3.91-2.31-6.03-2.92-4.75-1.36-9.59-2.4-14.52-2.88-.25-.02-.51,.12-.66,.16,.68,2.16,1.4,4.26,2.01,6.4,.36,1.28,.61,2.61,.75,3.94,.05,.44-.3,1.13-.68,1.34-.33,.18-.94-.14-1.43-.25-.08-.02-.16-.1-.21-.17-3.36-4.48-8.52-5.02-13.43-6.01-5.88-1.19-11.8-2.2-17.71-3.29-4.4-.81-7.38-3.68-9.78-7.12-1.73-2.48-3.31-5.12-3.51-8.35-.06-1.05-.44-2.34-1.85-2.7-.16-.04-.38-.19-.41-.34-.54-2.18-2.53-3.21-3.8-4.81-1.38-1.74-2.07-3.76-2.59-5.86-.19-.78-.4-1.58-.41-2.37-.04-3.36-.2-6.73,.04-10.08,.16-2.3,.91-4.56,1.38-6.84,.05-.24,.03-.49,.04-.76-3.84,.45-5.05-.85-3.98-4.4,.32-1.05,.08-1.55-.75-1.94-3.06-1.43-4.3-4.2-5.21-7.16-.27-.89-.18-1.9-.26-2.99,8.1,3.47,9.72,2.51,14.34,.51-.64-.72-1.17-1.41-1.79-2.01-2.31-2.26-3.67-5.07-4.71-8.06-.12-.33-.2-.7-.19-1.05,.02-1.01,.62-1.51,1.58-1.07,3.66,1.68,6.96,.66,10.28-1.05,2.05-1.06,4.21-1.9,6.3-2.83-.04-1.16-.78-2.54,.5-3.24,1.12-.62,2.32-.25,3.55,.46,2.31,1.32,4.92,1.52,7.47,.71,1.11-.35,2.08-.45,3.13,.04,.31,.14,.71,.14,1.07,.14,5.43,.04,10.29,1.86,15.19,4.1,6.34,2.9,12.25,6.41,17.76,10.63,4.58,3.5,9.48,6.72,13.13,11.24,2.81,3.47,5.24,7.27,7.57,11.09,1.51,2.48,2.55,5.24,4,8.3,.07-1.23,.16-2.02,.16-2.82,0-12.81,0-25.61,.03-38.42,0-1.64-.12-3.06-1.83-3.85-.35-.16-.53-.69-.8-1.04-2.53-3.22-5.89-5.21-9.71-6.51-2.65-.9-5.34-.59-8.04-.34-1.32,.12-2.67,.07-4,.03-.9-.03-1.79-.19-2.69-.25-2.78-.2-3.95-1.39-4.12-4.21-.02-.27-.07-.53-.11-.79-1.81-.53-3.64-.92-5.37-1.6-2.27-.89-4.19-2.35-6.05-3.97-2-1.73-1.97-6.18-.65-8.05,.45-.64,1.42-1.04,2.24-1.26,.75-.21,1.61-.04,2.64-.04v-4.51c-2.43,.57-4.79,1-7.08,1.7-3.06,.94-5.88,0-8.68-.92-1.36-.44-2.09-1.68-2.51-3.03-.16-.5-.21-1.03-.34-1.72-1.37,.61-2.56,1.21-3.8,1.68-2.39,.91-4.73,.79-7.06-.36-3.14-1.55-6.32-3-9.48-4.48-1.53-.71-2.69-1.76-3.43-3.3-1.25-2.56-.17-5.04,2.57-5.89,1.11-.34,2.21-.74,3.29-1.17,.47-.19,.87-.53,1.44-.9-.37-.49-.62-.85-.89-1.18-1.23-1.54-1.02-2.53,.91-3.13,2.55-.79,5.06-1.66,7.89-.72,1.42,.47,3.13,.08,4.71,.08l.03-.63c-1.48-.21-2.95-.48-4.44-.62-2.51-.23-5.04-.32-7.54-.57-3.33-.34-6.12-2-8.72-3.96-1.53-1.15-1.61-2.33-.5-4.58-3.05-.54-5.21-2.35-6.8-4.88-1.68-2.67-1.56-4.1,.43-6.59-1.21-1.16-2.45-2.3-3.62-3.51-.55-.57-1.04-1.24-1.42-1.94-1.43-2.61-1.2-3.76,1.09-5.85-.47-.96-.96-1.92-1.42-2.89-.68-1.45-1.07-2.98,.02-4.34,.98-1.21,4.04-1.34,5.56-.39,.61,.38,1.26,.74,1.75,1.23,.93,.93,1.84,1.64,3.31,1.44,1.33-.18,1.89,.88,2.31,1.9,.6,1.44,1.33,1.87,3.07,1.51,1.56-.32,3.33,.39,5,.65,.5,.08,1.01,.14,1.66,.24,.13-1.23,.23-2.29,.36-3.35,1.11-9.22,5.32-17.06,11.08-24.1,8.44-10.32,19.02-17.76,31.49-22.48,4.41-1.67,9-2.7,13.66-3.4,6.05-.91,11.91-.93,17.88,1.29,6.23,2.32,12.03,5.38,17.9,8.38,4.03,2.06,8.38,3.29,12.77,3.26,6.48-.03,13.01-.62,19.01-3.63,.81-.41,1.81-.46,2.72-.67l.24,.55c-.45,.34-.87,.76-1.37,1.01-9.77,4.75-19.54,9.49-29.32,14.21-6.02,2.9-12.07,5.76-18.11,8.63-4.09,1.94-8.16,3.93-12.3,5.76-4.01,1.78-8.19,6.49-7.09,12.77,.38,2.15,1.32,4.1,3.28,5.36,.3,.19,.57,.46,.78,.74,.51,.72,.13,1.51-.76,1.52-1.66,.02-2.94-.86-4.06-1.94-3.1-2.99-4.4-6.7-4.52-10.97-.23-8.1-6.06-12.02-12.38-12.7-16.37-1.74-29.4,11.5-32.27,24.65-.35,1.58,.77,2.3,1.26,3.39,.28,.62,.94,1.07,1.56,1.73,.96-2.88,2.89-4.61,5.55-5.44,1.96-.62,3.17,.24,3.33,2.29,.17,2.11,1.46,3.6,2.56,5.23,.76,1.12,1.68,2.18,2.15,3.42,.53,1.41,.86,2.7,2.75,2.65,.32,0,.71,.52,.97,.87,1.52,2.04,3.29,3.89,4.32,6.29,.45,1.05,1.27,2,2.12,2.79,.53,.49,1.44,.8,2.16,.78,1.59-.05,2.78,.59,3.92,1.56,1.3,1.1,2.64,2.15,3.94,3.2,1.2-.46,1.02-1.46,.98-2.32-.21-3.57,2.22-5.35,4.8-6.91,1.49-.9,3.96-.35,5.02,.89,.49,.58,.51,1.23-.23,1.84-.66,.54-1.59,1.27-1.63,1.97-.07,1.28-.19,2.65,.82,3.87,1.14,1.37,1.94,3.03,2.99,4.49,1.6,2.24,2.28,4.82,2.99,7.56,.83-.47,1.67-.88,2.43-1.39,1.24-.84,2.05-.23,2.68,.77,.47,.76,.94,1.59,1.12,2.45,.35,1.66,.5,3.37,.75,5.21,.77,.27,1.59,.55,2.8,.97,.04-1.28,.1-2.33,.1-3.37,.02-13.17,.04-26.34,.05-39.51,0-2.17,.16-4.35,.01-6.52-.3-4.28-2.02-8.22-3.19-12.29-.22-.77-.51-1.51-.77-2.25,11.89-5.46,23.63-10.87,35.37-16.25,5.68-2.6,11.37-5.16,17.07-7.74,.5-.22,1.03-.37,1.51-.63,.61-.33,1.04-.22,1.29,.42,.27,.7-.17,.96-.74,1.16-4.2,1.48-7.37,4.19-9.65,8-.96,1.6-1.48,3.26-1.44,5.15,.32,13.71,.6,27.42,.9,41.13,.03,1.18,.09,2.36,.11,3.54,.24,13.8,.45,27.6,.73,41.4,.3,15.16,.66,30.32,1,45.48,.08,3.58,1.86,5.25,5.37,5.39,2.65,.11,5.04-.79,7.34-1.77,8.32-3.54,16.56-7.25,24.84-10.88,7.19-3.16,14.43-6.22,21.59-9.46,4.53-2.05,8.96-4.33,13.42-6.52,.95-.47,1.98-.87,2.78-1.53,2.29-1.87,3.46-4.23,3.46-7.33-.05-41.78-.04-83.56-.01-125.33,0-2.46-1.29-4.44-2.14-6.56-3.11-7.72-8.87-13.1-15.89-17.27-.31-.18-.62-.36-.92-.56-.07-.05-.1-.15-.25-.37,.83-1.25,2.06-1.06,3.29-.87,4.46,.69,8.19,2.83,11.29,6.01,2.27,2.33,4.43,4.79,6.48,7.33,1.62,2,3.39,3.75,5.65,5,6.2,3.43,12.78,5.97,19.54,8.03,1.43,.44,3.07,.36,4.6,.26,4.28-.3,8.54-.15,12.64,1.11,2.39,.73,4.69,1.85,6.93,2.98,3.68,1.85,6.03,7.9,4.88,11.94-1.05,3.68-2.7,6.29-6.38,7.31-1.17,.32-2.49,.16-3.74,.08-.28-.02-.63-.6-.72-.98-.05-.2,.35-.6,.63-.77,.46-.28,.99-.45,1.49-.65,4.62-1.83,5.29-6.8,3.66-10.48-1.53-3.45-5.98-6.04-9.76-5.8-1.94,.12-2.82,.8-3.2,2.7-.19,.97-.16,1.99-.16,2.98,.01,26.43,.03,52.86,.04,79.29,0,2.81-.06,5.63-.08,8.45,0,.78,0,1.57,0,2.96,1.06-.75,1.74-1.03,2.13-1.54,.92-1.23,1.68-2.56,2.52-3.85,.3-.46,.56-.94,.92-1.35,.83-.95,1.95-1.73,2.51-2.81,.49-.94,.15-2.28,.56-3.3,.56-1.41,1.42-2.72,2.24-4.01,1.07-1.68,2.23-3.3,3.37-4.93,.84-1.2,1.18-2.41,.47-3.81-.72-1.39-.45-2.81,0-4.23,.43-1.38,.83-2.77,1.2-4.17,.25-.94-.19-1.4-1.11-1.25-.27,.04-.54,.13-.77,.26-2.87,1.63-5.47,.51-8-.83-2.03-1.08-2.96-3.53-2.28-5.58,.36-1.09,1.09-1.48,2.02-.95,.78,.45,1.48,1.19,2.47,.76,1.23-.54,2.57-.9,3.31-2.24,.56-1.03,1.24-2,1.92-2.96,1.58-2.2,2.97-4.56,5.31-6.11,.66-.44,1.19-1.06,1.76-1.58-.17-.24-.24-.42-.37-.51-3.14-2.1-3.18-4.07-.1-6.21,.37-.26,.85-.35,1.21-.61,1.65-1.21,3.88-1.9,3.64-4.73-.07-.78,.85-1.76,1.51-2.48,1.45-1.6,2.19-3.34,2.55-5.53,1.58-9.62,5.65-18.04,12.66-24.97,5.38-5.32,11.63-9.02,18.89-11.29,6.21-1.94,12.55-2.31,18.83-1.7,10.8,1.05,21.05,4.35,30.73,9.3,.86,.44,1.75,.8,2.94,1.34,.06-1.28,.13-2.16,.13-3.04,.01-6.63-.05-13.26,.02-19.89,.07-6.88-.09-13.76-.03-20.64,0-.9-.11-1.79-.22-3.31-.44,.77-.56,1.08-.77,1.3-.25,.27-.59,.46-.88,.68-.02-.32-.07-.64-.06-.96,0-.24,.08-.48,.13-.79-1.86-.3-3.63-.59-5.71-.92-.51,.37-.31,1.95-1.69,1.74-.96-.15-1.92-.32-3.31-.56,1.14,1.7,2.7,.99,3.8,1.52,1.22,.58,2.54,.93,3.97,1.44-1.31,1.58-3.29,.14-4.61,1.34,.56,.41,1.12,.82,2.07,1.52-.82,.08-1.14,.17-1.46,.13-3.87-.42-7.79-.62-11.6-1.37-4.02-.79-7.73-2.51-11.08-5-4.4-3.26-8.57-6.73-11.97-11.04-2.05-2.6-3.43-5.5-4.06-8.77-.2-1.03-.71-2.01-1.15-2.99-.25-.56-.64-1.05-1.11-1.78,2.55-.91,1.88-3.21,2.48-5,.68-2.01-.21-3.67-1.2-5.5,2.65-.74,4.65,.44,6.94,1.34,1.29-2.84-.42-4.82-1.9-6.95,1.97-.42,3.64-.37,5.13,.74,.68,.51,1.26,.93,2.2,.46,.92-.47,1.79-.33,2.16,.84,.31,.95,1.05,.36,1.6,.46,.38,.19,.79,.59,1.14,.55,3.29-.39,6.56-1.29,9.91-.47,.09,.02,.2,.04,.27,0,.41-.28,.8-.57,1.2-.86-.26-.33-.5-.93-.8-.96-1.59-.17-3.24-.49-4.77-.21-2.38,.44-4.67,1.33-7.01,2.03ZM138.43,412.3h.79c1.2-1.03,0-1.36-.55-1.88l-.16-.95c.65-.35,.89-.85,.6-1.56-.37-.91-.72-1.83-1.08-2.75,.49-1.67-.64-2.91-1.18-4.28-.45-1.15-2.14-1.66-3.22-1.04-.6,.34-1.11,.83-1.65,1.24l1.49,3.36c-.83-.63-1.67-1.24-2.47-1.9-.76-.61-1.43-1.34-2.24-1.88-.33-.22-.91-.04-1.37-.05,.14,.55,.29,1.57,.4,1.57,1.64-.06,2.09,1.46,3.06,2.23,1.01,.8,2,1.49,3.36,1.29l-.03,.42c-.28,1.23,.01,2.26,.99,3.11,.93,.81,1.8,1.7,2.7,2.55l.57,.52Zm-62.72,16.9c.02,.16,.06,.32,.1,.48l1.05,.5,.62-.62c0-.14,0-.28,0-.43l-.37-.71c.05-2.11-1.8-2.53-3.1-3.3-3.23-1.91-4.47-1.54-6.1,1.69-.24,.48-.31,1.29-.06,1.73,2.06,3.7,4.81,6.78,8.57,8.84,5.63,3.09,11.78,2.81,17.9,2.64,.88-.02,1.79-.22,2.61-.53,1.48-.56,3.02-1.02,4.87-2.14-1.25-.16-1.86-.24-2.56-.32,6.43-.63,11.31-4.57,16.74-7.41-.43-.02-.86-.04-1.29-.06,1.28-.94,3.42-.49,4.14-2.68-1.73-.14-3.32-.38-4.88,.4-1.19,.6-2.41,1.15-3.61,1.73-4.12,1.98-8.24,3.96-12.34,5.99-.39,.2-.6,.77-.9,1.16-.84,.25-1.68,.51-2.52,.76l.04,.32c.96,.07,1.93,.14,2.89,.21v.16c-1.23,.05-2.46,.11-3.68,.16l.05,.06c-.24-.22-.47-.59-.74-.63-1.85-.24-3.72-.41-5.58-.61-3.98-.42-7.99-.66-10.88-4.12-.61-.73-1.89-.92-2.87-1.31-.57-.23-1.22-.29-1.76-.58-1.88-.99-1.91-1.75-.22-3.22,.36-.31,.69-.66,1.15-1.1,.46,.7,.8,1.21,1.13,1.71l.51,.77,.63,.39c.14,.04,.29,.07,.43,.07Zm461.6-84.57l.06,.07c0,.75,0,1.49-.01,2.24-.31,.5-.51,1.18-.96,1.47-2.76,1.76-5.72,3.03-9.06,3.14-2.24,.07-4.52-.08-6.5,1.28l.05-.05c-.84-.06-1.26-1.08-2.34-.81-.69,.18-1.54-.28-2.32-.46,.14-.4,.89-.82-.08-1.17-.59-.22-1.13-.56-1.71-.82-4.12-1.85-8.23-3.72-12.37-5.51-2.03-.88-4.13-1.66-6.39-.6,.3,1.15,1.07,1.33,1.89,1.47,.34,.06,.23,.19,.98,1.08,.49,.58,1.27,.96,1.99,1.29,2.63,1.21,5.29,2.37,7.95,3.52,2.17,.93,4.31,2.06,6.82,1.74l-1.85,.38c1.52,.93,3.08,1.81,4.7,1.96,4.4,.4,8.77,.42,13.19-.48,6.89-1.4,11.49-5.42,14.85-11.35,.98-1.74-.44-2.44-.89-3.59-.46-1.17-1.4-1.26-2.47-1.08-2.25,.36-3.88,1.8-5.48,3.25-.26,.23-.16,.86-.23,1.3l-.4,.66c0,.16,0,.32,0,.48l.58,.59Zm-393.67,59.47l.84,1.05c.39-1.83-.54-3.07-1.4-4.02-1.03-1.14-1.69-2.41-2.33-3.74-.74-1.08-1.42-2.22-2.26-3.21-.3-.36-1-.38-1.52-.56-2.32-1.66-3.86-3.98-5.51-6.24-.64-.88-1.74-1.43-2.63-2.13-1.43-1.84-3.56-2.62-5.5-3.71-1.45-.82-2.78,.1-4.17-.09-1.49-.2-3-.43-4.49-.37-.72,.03-1.79,.26-1.9,1.49,1.65,.28,3.26,.41,4.79,.85,3.75,1.07,7.67,1.74,10.67,4.61,.88,.84,2.07,1.33,3.12,1.99,.47,.4,1.09,.7,1.38,1.2,2.52,4.42,4.98,8.87,7.46,13.32-.2,.15-.59,.35-.56,.45,.53,2.33,.89,4.72,1.72,6.94,.78,2.06,2.05,3.94,3.14,5.89,.25,.44,.6,.83,.9,1.24l.5-.27c-.32-.78-.54-1.63-.98-2.34-.52-.85-.57-1.73-.59-2.66-1.25,.16,.52-1.99-1.16-1.51-.44-.88-.96-1.73-1.29-2.64-.27-.77-.23-1.65-.49-2.42-.31-.92-.78-1.79-1.18-2.68,.53,.46,1.05,.91,1.65,1.43l.09-1.23c1.02,1.81,2.04,3.62,3.06,5.44h.78c.77-.97,.98-2.15-.18-2.69-1.59-.74-1.91-1.92-1.95-3.4Zm-21.43,29.38c-.51-.24-1.01-.66-1.52-.68-1.81-.08-3.63-.03-5.44-.03,.57-.47,1.21-.67,1.78-.56,2.02,.37,4,.34,5.99-.17-1.33-.29-2.8-.01-3.97-.48-2.62-1.04-4.66-.16-6.67,1.33-.82,.53-2.23,.05-2.64,1.63,4.71,.68,9.33,1.35,14.13,2.04l-.17-1.97c-1.44,.15-2.73,.28-4.4,.45,1.11-.84,2.44,.26,2.92-1.14,0-.14,0-.28,0-.43Zm10.78,5.76c-2.49-.62-4.97-1.27-7.48-1.85-.83-.19-1.7-.17-2.56-.25,4.62,1.9,9.44,3.11,13.47,6.31-.32-.76-.63-1.52-.95-2.29,.35,.22,1.11,.52,.87-.09-.44-1.11-1.17-2.39-2.14-2.95-2.43-1.39-5.12-2.06-7.94-1.31,2.26,.81,4.49,1.62,6.73,2.43Zm-3.02,3.55c.42-.06,.84-.11,1.65-.22-5.76-3.69-11.65-4.34-17.82-3.42,5.4,.69,10.72,1.76,15.91,3.41-.43,.07-.85,.13-1.33,.2,2.32,1.81,4.51,3.53,6.88,5.38-.04-.49,0-.76-.08-.98-1.01-2.31-3.14-3.3-5.21-4.37Zm348.78-121.01c.73,1.5,1.72,.88,2.66,.29,1.48-.94,2.18-2.81,4.03-3.37,.18-.05,.11-.92,.15-1.41-.41,.03-.91-.07-1.21,.13-.59,.38-1.06,.92-1.59,1.39-1.06,.95-2.12,1.89-3.18,2.84,.48-1.15,.96-2.3,1.58-3.77-1-.37-2.02-1.03-3.07-1.06-1.71-.05-2.97,2.48-2.6,4.84,.09,.02,.21,.09,.26,.06,.76-.56,1.51-1.13,2.54-1.91-.36,.8-.58,1.28-.89,1.98h1.34ZM70.79,408.25c-.61-.97-1.32-1.89-1.8-2.92-2.27-4.85-3.68-9.86-2.37-15.28,.12-.49-.12-1.08-.24-1.95-3.07,7.44-.77,17.86,4.47,21.2l.16-.77,1.5,.91c-.64-1.95-.82-3.89-1.82-5.19-1.17-1.52-1.59-3.11-1.96-4.85-.4-1.83-.86-3.65-1.29-5.47-.77,3.53-.07,6.8,1.34,9.97,.65,1.46,1.34,2.91,2.01,4.37ZM391.65,176.17c-.5-.51-1.06-.98-1.48-1.55-.54-.75-1.75-1.36-.63-2.64,.13-.15-.7-1.29-1.24-1.83-.18-.18-1.04-.07-1.17,.15-.28,.49-.54,1.22-.37,1.69,.78,2.18,.85,4.89,3.84,5.61,.29,.07,.48,.51,.72,.78,.12,1.75,1.41,2.05,2.78,2.29,.88,.16,1.75,.53,2.62,.55,.81,.02,1.09,.66,1.59,.92,2.42,1.22,5.08,1.03,7.76,.64l-2.74-.91,.11-.58,5.37,.34,.05-.54c-1.77-.19-3.6-.78-5.28-.5-3.23,.54-6.02-.78-8.96-1.48-.68-.16-1.31-.37-1.18-1.45,.13-1.13-.79-1.48-1.81-1.49ZM144.74,433.01c1.09-.02,1.23-.88,.96-1.51-.67-1.5-.21-2.75,.52-4.01,.08,.48,.36,1.03,.21,1.41-.73,1.77-.33,3.31,.88,5.34,.02-4.34,.63-8.2-2.16-11.88l-.16,2.17c-1.19-1.87-1.41-4.3-3.34-6.1-.42,1.19-.53,2.06-.23,3.04,.13,.41-.14,.94-.23,1.41-2.37,.5-2.63,.93-1.63,2.95,.53,1.08,1.31,2.05,1.77,3.16,.36,.88,.18,2.02,.64,2.8,.43,.72,1.34,1.11,1.47,2.14,.05,.37,.55,.68,1.07,1.29l.24-2.23Zm-68.36-124.43c-.39,.26-1.02,.44-1.11,.78-.22,.8-.18,1.67-.26,2.67,1.93,0,3.72,.01,5.51,0,1.79-.01,3.58-.05,5.37-.08l-.04-.25c-2.54-.62-5.09-1.24-7.63-1.85,.62,.08,1.26,.09,1.85,.26,4.07,1.17,8.27,1.13,12.37,.69,5.34-.58,10.6-.73,15.83,.58,1.86,.47,3.69,1.05,5.53,1.58-.21-.57-.55-.93-.95-1.18-3.79-2.3-8.1-2.35-12.29-2.47-4.98-.14-9.98,.3-14.97,.26-2.19-.02-4.37-.62-6.55-.95,2.68,.23,5.37,.65,8.05,.64,4.41-.02,8.82-.4,13.23-.47,1.96-.03,3.93,.3,5.88,.5,1.26,.13,2.5,.34,4.26,.59-.59-.64-.74-.86-.94-1.01-5.88-4.39-12.43-7.32-19.55-9.08-5.43-1.34-10.93-2.51-16.13-4.66,2-.07,3.89,.3,5.78,1.02,2.74,1.04,5.66,1.31,8.79,1.6-.96-1.7-2.73-1.05-3.67-1.81,.08-.37,.26-.93,.19-.97-1.34-.69-2.72-1.31-4.08-1.95l1.86-.41c-.95-.7-1.51-1.33-2.21-1.58-3.54-1.3-7.12-2.5-10.69-3.72-.15-.05-.35,.05-.52,.08-2.66-1.23-5.31-2.45-7.95-3.67l-1.99,2.94c-.08,.46-.34,1-.2,1.37,1.04,2.66,2.89,4.49,5.7,5.27,1.1,.31,2.1,.95,2.19,2.12,.05,.71-.54,1.48-.9,2.35,1.92,1.97,4.35,3.22,7.1,3.89,3.69,.9,7.43,1.24,11.23,1.12,.86-.03,1.78,.18,2.58,.51,1.2,.49,1.31,1.64,1.18,2.74-.14,1.14-1.09,1.34-2.01,1.37-.99,.04-2.02,.1-2.96-.15-2.56-.67-5.09-.68-8.25-.07,1.73,.62,2.92,1.05,4.11,1.47l-2.74-.09Zm13.21,124.73c-.27-.14-.52-.31-.8-.42-.05-.02-.18,.2-.28,.3l.85,.37c.07,.44,0,1.15,.23,1.27,.53,.26,1.25,.43,1.8,.29,2.41-.6,5.01-.88,6.59-3.21,.2-.29,.47-.62,.78-.74,2.2-.88,1.87-2.52,1.45-4.26-1.8-.27-2.48,.98-3.21,2.1-.49,.75-.76,1.65-1.31,2.34-.46,.58-1.19,.87-1.8,.05-.42-.56-.81-1.15-1.2-1.71q-2.89,1.13-3.12,3.61Zm39.6-100.29c-.86-.19-1.8-.2-2.56-.59-1.9-.97-4.13-.54-5.94-1.36-2.18-.99-4.47-1.17-6.7-1.75-1.91-.5-2.88,.13-3.92,2.25,4.82-1.05,9.25,.05,13.65,1.43-1.49-.26-2.97-.56-4.46-.76-2.13-.28-4.27-.62-6.4-.65-.65,0-2.01-.02-2.09,1.2-.09,1.55,1.22,.92,1.98,1.02,.8,.1,1.63,.02,2.44,.02s1.64,.08,2.44-.02c.88-.11,.12,1.44,1.25,1.09,.45-.14,1.03,.17,1.55,.27-1.41-.16-2.83-.38-4.25-.45-3.34-.18-6.64,.1-9.87,1.02-.6,.17-1.58-.23-1.52,1.22,1.21,.08,2.43,.15,3.66,.23-.72,.23-1.44,.18-2.15,.25-.72,.07-1.63-.32-2.3,.94,2.52,.31,4.83,.63,7.16,.89,2.35,.26,4.71,.45,7.06,.68v.11h-13.76l1.24,1.41c2.02,2.74,4.7,4.02,8.12,3.82,1.26-.07,2.54-.01,3.81-.01v.22c-1.14,.09-2.28,.18-3.41,.27v.56c1.69,.01,3.38,.02,5.06,.03-.44,.48-.81,1.03-1.32,1.41-1.1,.82-1.07,1.45,.23,2.39-.7,1.05,.35,1.21,.86,1.44,1.08,.48,6.88,.21,8.39-.29l-2.31-.6c2.59,.27,5.22,.33,7.75,.87,2.42,.51,4.74,1.51,7.1,2.29-.12-.72-.42-1.04-.72-1.38-.35-.41-.7-.82-1.05-1.23,2.4,1.23,3.93,3.39,5.68,5.3,1.05,1.15,2.08,2.33,3.31,3.71,.69-3.39,.53-6.03-2.65-7.54-.24-.11-.44-.32-.62-.52-3.5-3.73-7.87-6.28-12.19-8.87-1.9-1.13-4.05-1.83-6.09-2.72-4.13-2.05-8.37-3.64-13.74-3.15,2.72-1.18,4.86-1.12,7.07-.62,2.25,.51,4.46,1.54,6.86,.77,4.5,2.54,8.79,5.47,13.58,7.76,.2-2.53,.11-2.67-2.28-3.63l-.55-1.96,1.75-.33c-1.5-1.33-2.72-2.4-3.93-3.48,.22-.24,.68-.6,.63-.69-.89-1.7-2.49-2.74-4.08-3.53-1.35-.67-2.59-1.37-3.68-2.4-.68-.64-3.5-1.07-3.64-.52-.33,1.3-1.59,1.17-2.08,1.7,2.51,.8,5.08,1.63,7.65,2.45Zm-39.62-14.08c1.94-.73,3.88-1.47,5.82-2.2l-.12-.52c-.67,.06-1.35,.06-2.01,.21-1.98,.45-3.95,.95-5.92,1.43,1.42-.49,2.82-1.04,4.26-1.45,3.32-.93,6.71-1.26,10.16-1.13,1.01,.04,2.21,.33,2.93-1-4.98-1.02-9.93-.9-14.88-.82-.35,0-.7,.17-1.04,.26-3.37,.87-6.78,1.64-10.11,2.65-3.43,1.03-6.68,1.36-9.75-.96-.26-.19-.66-.19-1.25-.35,0,.77-.25,1.64,.05,1.91,.74,.67,1.67,1.27,2.63,1.53,1.37,.37,2.82,.5,4.25,.57,1.54,.08,3.1,.1,4.62-.05,2.67-.27,5.32-.7,7.97-1.06l-1.87,.76,.07,.36c1.33,0,2.66,0,3.98,0-1.4,.14-2.85,.1-4.2,.45-2.32,.6-4.54,.41-6.89,.05-2.35-.36-4.79-.08-7.2-.08l-.04,.4c.82,.2,1.64,.4,2.47,.6l-1.71,.35c3.62,2.04,7.14,2.96,10.94,2.85l-3.73,.22c4.15,2.21,7.1,1.86,10.19-1.1l-1.63-.22c2.08-.49,4.32-1.01,6.55-1.54l-.1-.56c-1.66,.18-3.33,.36-4.99,.53,3.92-.82,7.83-1.69,11.76-2.46,2.37-.46,4.77-.74,7.14-1.18,.56-.1,1.05-.54,1.99-1.05-1.18-.1-1.92-.05-2.59-.24-4.31-1.23-8.34-.06-12.38,1.27-1.78,.58-3.59,1.04-5.39,1.55Zm419.29,2.29c1.39-1.63,3.35-1.95,5.28-2.11,2.33-.19,4.68-.1,7.02-.13,2.96-.03,6.55-3.81,6.61-6.96,0-.06-.12-.12-.19-.19-.71,.75-1.38,1.53-2.13,2.24-1.74,1.63-3.98,1.99-6.22,2.35-1.77,.29-3.61,.38-5.31,.89-2.26,.68-4.54,1.5-6.39,3.83h1.43c-.52,.58-1.05,1.17-1.57,1.75-.86,.95-2.01,1.7-2.17,3.2,2.86-2.65,5.8-4.87,10.02-4.03,4.4,.87,5.98,4.19,7.08,8.19-.12,.63-1.38,1.2-.62,2.54,2.37-1.71,2.12-4.07,1.91-6.53l1.98-1.09c-1.52-2.32-3.38-4.17-5.89-5.33-.39-.18-.9-.24-1.32-.17-3.17,.49-6.53-.18-9.5,1.54Zm-14.15-21.25c1.55-.49,3.09-.99,4.84-1.55-1.97-1.84-4.01-1.16-6.01-.82-.52,.09-1.15,.59-1.49,.41-1.79-.91-3.27,.08-4.51,.92-2.3,1.55-4.36,3.44-6.52,5.2,1.19-1.73,2.39-3.47,3.89-5.65-.79,.45-1.22,.58-1.49,.86-1.8,1.9-3.62,3.78-5.31,5.78-1.08,1.28-2.14,2.68-1.77,4.57-.27,.31-.65,.94-.81,.89-1.08-.33-1.47,.38-1.88,1.08-.36,.62-.69,1.26-1,1.91-.04,.07,.13,.24,.21,.38,.43-.4,.87-.8,1.34-1.24,.54,1.19,.13,2.03-.45,2.91-.67,1.01-.63,2.02,.67,2.94,2.19-4.16,4.35-8.25,6.45-12.22l1.89,.08c-.08,.67-.15,1.34-.25,2.22,3.38-3.08,6.72-5.64,10.9-6.88,.34-.1,.85-.29,1.02-.14,1.35,1.2,2.52-.08,3.76-.19,1.33-.12,1.39-1.01,1.5-2.3-1.85,.31-3.42,.57-5,.83ZM77.35,364.58c-.69,.19-1.39,.56-2.07,.55-3.74-.08-6.57,2.1-10.35,3.88,1.62,.35,2.6,.73,3.58,.75,5.42,.1,10.61-1.42,16.5-2.49-2.13-.54-3.65-.92-5.17-1.3,3.66-.27,7.31,.7,10.98,.04,.83-.15,1.76,.2,2.64,.36,1.23,.22,2.46,.45,3.69,.7,4.56,.94,9.05,2.13,13.36,3.95,.87,.37,1.79,.6,2.68,.9-.21-.75-.61-1.16-1.1-1.4-2.65-1.33-5.34-2.58-7.99-3.92-6.48-3.27-13.19-5.05-20.51-3.65-.94,.18-2.01,.03-2.94-.24-1.37-.39-2.69-.96-3.99-1.56-.68-.31-1.35-.43-1.6,.28-.16,.44,.11,1.21,.45,1.61,.5,.6,1.22,1.02,1.85,1.51Zm16.36-73.57c-1.73-1.91-2.52-4.23-3.06-6.69-.14-.62-.41-1.21-.62-1.81l-.47,.1-.55,2.94c-1.42-1.84-2.5-3.25-3.89-5.04-.33,2.82,.32,4.87,1,6.92,1.87,5.63,6,8.57,11.6,9.75,.18,.04,.43-.27,.64-.42,.59,.51,1.2,.8,2.01,.1-3.88-3.96-6.89-8.37-7.2-14.11,1.05,2.2,1.8,4.56,2.96,6.7,1.28,2.35,2.9,4.52,4.45,6.71,.34,.48,1.05,1.11,1.48,1.03,1.69-.31,3.58-.28,5-1.95-1.07-.69-2.02-1.28-2.95-1.91-.49-.33-1.08-.65-1.38-1.13-1.7-2.7-2.92-5.67-4.78-8.31-1.06-1.5-1.59-3.36-2.41-5.04-.21-.41-.64-1-.98-1.02-1.97-.07-2.93,1.55-4.15,2.72-.94,.91,.11,1.04,.47,1.61,.44,.68,.17,1.78,.45,2.61,.72,2.1,1.59,4.15,2.39,6.22Zm254.74,7.44l2.61,1.94c-.62-2.86-2.28-4.05-4.18-5.67,.1,1.06,.16,1.64,.22,2.22-.87-1.02-1.82-1.99-2.56-3.09-.23-.35-.03-1.13,.2-1.6,.52-1.05,.08-2.25-1.05-2.45-.41-.07-.85-.01-1.64-.01,0-1.92,.03-3.7,0-5.49-.02-1.08-.03-2.17-.26-3.21-.1-.44-.73-.77-1.54-1.56-.19,1.61-.48,2.66-.41,3.68,.15,2.15,.43,4.29,.76,6.42,.15,1-.46,.94-1.28,1.1,0-1.52,.01-2.95,0-4.38,0-.63,.03-1.28-.12-1.88-.2-.78-1.19-.93-1.72-.33-.61,.68-.86,2.59-.12,2.95,1.22,.6,.73,1.48,.81,2.28,.2,2.14,.27,4.3,.57,6.42,.23,1.58,.74,3.13,1.13,4.69l-1.48-.71c.2,1.17,.36,2.09,.54,3.14l-1.39-.52c.7,2.89,1.18,5.57,2.03,8.13,.88,2.66,2.09,5.22,3.21,7.8,.39,.9,.9,1.77,1.48,2.56,2.67,3.64,5.35,7.27,8.11,10.84,1.25,1.62,1.56,3.41,1.51,5.35-.02,.94-.35,2.43,.09,2.73,1.41,.94,1.49-1.08,2.39-1.48,.08-.04,.22-.02,.25-.08,.44-.78,1.05-1.46-.09-2.31-.65-.48-1-1.4-1.42-2.15-.07-.13,.14-.43,.28-.79,.46,.56,.82,.99,1.16,1.4,1.61-1.07,1.45-2.57,1.26-4-.26-1.96-.33-3.88,.02-5.86,.21-1.16,.61-2.52-.82-3.82-.31,.78-.56,1.37-.75,1.97-.04,.13,.1,.33,.16,.5-.14-.03-.34-.02-.4-.11-.89-1.22-1.52-.06-2.33,.25-1.06-1.66-2.46-3.22-3.13-5.04-1.43-3.89-4.23-6.89-6.22-10.4-1.06-1.88-2.33-3.64-3.5-5.45,.18-.33,.55-.69,.51-.99-.23-1.85-.55-3.7-.96-6.23,.99,.73,1.71,.99,1.9,1.46,.82,2.08,1.61,4.2,2.16,6.36,.74,2.9,2.2,4.68,4.72,5.17,.17-1.53,.38-3.03-1.09-4.4l1.45,.34c.87-1.4,.84-2.69-.23-3.98-.38-.46-.52-1.12-.77-1.69Zm194.75,18.46c.81-3.24,1.3-6.53,1.35-9.87,.03-1.66-.15-3.32-.24-4.98h-.53c0,1.81-.09,3.61,.03,5.39,.1,1.5-.05,2.92-.87,4.16-1.24,1.86-.95,3.56,.33,5.23-.39,.42-1.11,.83-1.12,1.26-.08,1.97-.57,3.81-1.34,5.6-.07,.17,.17,.48,.26,.73l.38,.94-.95,.27-.57,.45-.84,1.48c3.51,1.2,5.08-1.76,7.27-3.49l1.95,1.52c.76-1.43,1.68-2.6,2.02-3.93,1.42-5.55,2.11-11.11-1.46-16.68,1.02,.07,1.54,0,1.98,.16,1.45,.51,2.84,1.18,4.3,1.63,.6,.18,1.54,.22,1.94-.12,.82-.71-.11-1.45-.39-2.15-.09-.22-.4-.35-.6-.52-1.72-1.39-1.69-1.62,.37-2.53,.41-.18,.85-.3,1.27-.46,2.97-1.09,4-3.55,4.84-7-1.53,1.21-3.54-.03-3.97,2.27-.03,.15-.63,.24-.97,.27-2.35,.19-4.7,.35-7.05,.55-.44,.04-.88,.17-1.31,.26l.03,.34,4.62,.84c-1.26,.09-2.53,.12-3.74-.12-1.26-.25-2.47-.77-3.85-1.21,.19,.62,.29,.95,.43,1.44-1.06-.28-1.43-1.43-2.57-1.14,3.57,5.32,4.1,7.01,3.78,11.9-.35-2.31-.52-4.67-1.85-6.74,.01,1.79,.32,3.54,.39,5.3,.07,1.71,.05,3.46-.22,5.14-.26,1.66-.89,3.26-1.36,4.89,.37-3.26,1.78-6.38,.11-10.1-.46,3.34-.24,6.37-1.84,9.02Zm2.25-33.36l.04,.04c-.01-.37,.09-1.02-.06-1.08-2.8-1.2-5.44-2.86-8.65-2.91-.79-.01-1.58-.41-2.66-.7,.71-.59,1.12-.93,1.52-1.28,.56-.49,1.08-1.14,.47-1.76-.28-.29-1.09-.11-1.66-.06-.24,.02-.45,.29-.7,.4-2.37,1.15-4.73,2.32-7.51,1.31-.48-.18-1.08,0-1.62-.06-3.62-.34-6.96,.9-10.33,1.88-1.88,.55-3.73,1.27-5.49,2.12-2.27,1.1-4.48,2.37-6.65,3.66-1.22,.73-2.65,1.23-3.73,2.7,1.21-.17,2.08-.29,2.96-.42,3.29-.5,6.57-1.05,9.86-1.51,2.17-.3,4.07-1.36,6.6-.46,2.78,.99,6.03,.65,9.06,.95,.65,.06,1.28,.39,1.92,.6-4.92,.12-9.74-1.15-14.68-.3,.46,.41,.97,.63,1.5,.73,2.78,.51,5.45,1.07,7.09,3.85,.88,1.49,2.25,2.7,3.41,4.06,1.17-.65,1.79-1.43,1.06-2.86-.34-.68-.48-1.55,.3-2.28,2.97,.27,2.06,3.82,4.27,4.9,1.9-.55,3.64-.24,4.94,1.73,.5,.75,1.44,1.21,2.53,2.07,.38-1.4,.75-2.32,.87-3.27,.13-1.03,.03-2.08,.03-3.09,.53,0,.71,0,.88,0,2.68,.14,5.5,.77,7.73-1.27,2.21-2.01,3.5-4.73,4.92-7.32,.38-.7-.46-1.31-1.35-.91-1.23,.56-2.38,1.32-3.6,1.9-1.52,.72-3.08,1.39-4.85,1.15,1.66-1.03,3.92-.58,5.3-2.23-1.14-1.37-2.45-.54-3.72-.29Zm-61.06-29.36c.6,.07,1.23,.29,1.79,.19,1.74-.31,3.48-.69,5.19-1.15,2.5-.68,4.2-.66,6.17,.22-1.41,.13-2.95-.01-4.28,.45-3.56,1.24-7.16,2.48-10.51,4.19-6.9,3.53-12.82,8.43-18.25,13.91-.63,.64-1.06,1.47-1.68,2.12-1.15,1.19-1.17,2.58-.82,4.02,.12,.48,.47,.91,.72,1.36,.48-.32,1.08-.55,1.42-.98,2.17-2.75,4.27-5.57,6.43-8.33,.46-.59,1.09-1.05,1.64-1.57l.14,.17-1.28,2.08c4.8-2.16,9.74-2.94,14.73-3.57l-1.98,.7c2.33,.3,4.58,.35,6.83,.28,.96-.03,2.04-.17,1.97-1.59,2.9-1.87-1.06-2.28-.78-3.7,1.36-.26,2.74-.53,4.44-.85-.62-.3-.92-.45-1.57-.76,4.02,.3,7.32-.38,9.76-3.94-1.26,.16-2.13,.38-2.98,.34-1.61-.07-3.21-.25-4.8-.48-.87-.13-2.35,.69-2.48-.62-.1-1.04,1.58-.71,2.34-1.23,.13-.09,.35-.04,.53-.06,2.42-.27,4.83-.51,7.25-.81,.58-.07,1.13-.33,1.67-.49-.37-1.72-1.32-2.95-2.82-2.94-4.01,.02-8.1-1.01-12.04,.6-.16,.06-.38-.03-.7-.06q2.54-1.62,5.83-1.74c.63-.02,1.29,.03,1.9-.09,.36-.07,.96-.53,.93-.66-.12-.43-.43-1.02-.77-1.11-.74-.19-1.56-.21-2.32-.12-.83,.1-1.64,.46-2.64-.13,2.15-1.32,4.32,0,6.52-.48-.83-1.81-2.17-2.23-3.66-1.89-2.01,.45-4.04,.98-5.92,1.8-1.39,.61-2.7,.91-4.75,.58,.96-.08,1.36-.09,1.76-.15,.36-.05,.72-.16,1.35-.31-.87-.44-1.73-.6-1.91-1.03-.38-.93-.97-1.18-1.79-1.01-.84,.17-1.75,.36-2.46,.8-1.37,.85-2.68,1.82-3.89,2.88-1.19,1.04-2.8,1.71-3.39,3.34-.65,1.8-.64,1.79-1.28,2.45-.44,.45-.85,.94-1.24,1.44-.08,.1-.03,.31-.04,.47l1.16,.63-.87,1.69c-2.4,1.08-4.09,2.93-5.69,5.02,1.04,.57,1.43,.07,1.87-.6,.32-.48,1-1.24,1.28-1.15,1.48,.48,2.48-.49,3.45-1.12,3.53-2.3,7.31-4.25,10.53-7.01Zm19.74-27.33c-1.21,.33-2.42,.68-3.63,.99-2.35,.59-4.47,1.62-6.29,3.29,.62,.03,1.19-.08,1.74-.25,4.98-1.55,9.94-3.17,15.22-3.38,.59-.02,1.17-.44,1.76-.68-.74-.51-1.36-.63-1.96-.58-2.31,.19-4.62,.43-6.93,.66,.85-1.12,2.11-.9,3.25-.92,5.16-.06,10.33-.01,15.49-.09,1.61-.02,3.22-.31,4.83-.48l.03,.23c-1.44,.3-2.87,.6-4.31,.9l.03,.34h4.27v.2l-2.53,.47,.02,.52c1.49,.15,2.99,.31,4.48,.46,2.21,1.37,4.64,1.86,7.21,1.68,1.33-.1,2.51-.5,3.21-2-3.67,.14-7.07,.27-10.47,.4,1.61-.17,3.22-.37,4.83-.5,1.13-.09,2.26-.07,3.4-.1-1.06-1.11-2.26-1.29-3.55-1.23-1.21,.06-2.43,.01-3.64,.01v-.16l3.5-.31c-.25-1.13-.46-2.08-.69-3.11l-2.35-.32,2.02-1.14c-1.68-.32-3.28-.23-4.86-.06-1.88,.2-3.74,.64-5.62,.66-1.99,.02-2.67-1.35-1.81-3.16,.48-1.01,1.33-1.37,2.4-1.48,3.14-.33,6.28-.71,9.42-1.04,3.06-.32,5.74-1.59,8.17-3.38,.76-.56,1.86-1.18,.71-2.6-.77-.94-.22-2.21,.97-2.98,.6-.39,1.31-.6,1.98-.88,1.66-.68,2.85-1.88,3.69-3.44,1.15-2.13,1.03-2.63-.8-4.39-.41-.4-.71-.91-1-1.29-2,.9-3.91,1.69-5.75,2.62-1.59,.8-3.02,2-5,1.54-.19-.04-.56,.13-.66,.31-.76,1.36-2.19,1.57-3.45,1.91-3.05,.8-5.41,2.86-8.11,4.29-.66,.35-.47,1.84,.26,2.51-1.54,.5-3.1,.94-4.62,1.52-2.82,1.07-2.88,1.14-4.2,2.8,4.44-2.35,8.71-3.3,13.77-3.11-10.95,2.94-21.36,5.84-29.56,13.6,1.15,.01,2.26-.16,3.35-.4,1.23-.27,2.43-.69,3.67-.87,1.16-.17,2.36-.11,3.54-.14,1.27-.04,2.54-.1,3.81-.08,1.07,.01,2.2-.38,3.76,.42-2.59,.81-4.67,.51-6.71,.4-4.22-.24-8.28,.53-12.23,1.9-1,.35-2.11,.78-3.09,2.39,3.3-1.39,6.06-2.44,9.06-2.47Zm-171.37,78.52c-.36-1.14-.73-2.28-1.09-3.43-1.61,4.87-2.61,9.73-2.26,14.73,.35,4.93,.93,9.85,1.42,15.01-.43-.39-.94-.62-1.04-.97-1.19-4.04-1.35-8.2-1.48-12.38-.86,4.17-.32,8.34,.07,12.55-1.62,.39-2.18,1.21-2.45,2.81-.56,3.36-.43,6.65-.17,10,.09,1.14-.34,2.33-.26,3.47,.09,1.21,.57,2.4,.75,3.61,.19,1.25,.22,2.53,.31,3.79-1.57,.8,.47,2.24-.55,3.19-.08,.07,.29,.89,.61,1.06,.79,.41,1.65,.74,2.52,.93,.91,.2,1.71,.02,2.4-.83,1.46-1.83,2.54-3.74,2.39-6.17-.05-.72-.07-1.46,.06-2.17,.24-1.41,1.12-2.37,2.33-2.08,1.53,.37,1.88-.58,1.98-1.49,.24-2.14,.52-4.35,.27-6.47-.45-3.77-1.6-7.39-3.2-10.86-.44-.96-.73-2.05-.8-3.11-.07-1.09,1.05-2.11,2.25-2.39,1.16-.28,1.69,.56,2.09,1.34,.49,.96,.88,2,1.09,3.05,.47,2.31,1.02,4.57,2.48,6.49,.09,.12,.27,.18,.45,.3,.15-.52,.29-1.03,.46-1.64,.24,.65,.44,1.2,.67,1.82,1.03-.25,1.9-.56,2.79-.63,.55-.04,1.28,.12,1.67,.48,1.35,1.23,2.59,2.59,3.98,4,1.09-2.7-.1-4.77-1.42-6.7-1.55-2.26-4.01-3.79-5.21-6.39-.23-.51-.94-.79-1.39-1.22-.43-.42-.8-.89-1.22-1.36-.14,.41-.27,.76-.51,1.46-.89-2.06-1.5-3.77-2.35-5.37-.57-1.08-1.46-2-2.2-2.99-.1-.71-.52-1.86-.26-2.05,1.87-1.3,.36-2.52,.05-3.75-.56-2.26-1.33-4.48-1.75-6.77-.63-3.42-1.04-6.88-1.55-10.32l-.29-.03c-.24,2.52-.47,5.04-.71,7.55h-.2c-.09-1.41-.17-2.8-.26-4.19-.48,.43-.71,.91-.71,1.37,.04,2.24,.15,4.49,.24,6.73Zm-142.46,99.76c1.15-.69,2.23-1.5,3.45-2.05,7.91-3.55,15.85-7.05,23.77-10.57,15.87-7.05,31.74-14.11,47.62-21.15,2.55-1.13,2.73-1.56,1.53-4.43-.82,.31-1.66,.59-2.48,.95-10.86,4.73-21.71,9.48-32.57,14.21-9.38,4.08-18.78,8.14-28.17,12.18-3.9,1.68-7.86,3.25-11.74,4.99-2.25,1.01-3,2.83-2.34,5.13,.09,.3,.67,.45,1.02,.67-.6,.52-1.18,.94-1.18,1.94,.02,4.17-.08,8.34-.12,12.51,0,.43,.17,.86,.31,1.52,2.66-1.29,5.15-2.54,7.67-3.73,8.11-3.8,16.24-7.56,24.34-11.38,8.42-3.97,16.81-8.02,25.23-12,6.38-3.01,12.77-5.98,19.19-8.88,1.19-.54,1.61-1.2,1.58-2.46-.07-2.99,0-5.99-.04-8.98,0-.56-.22-1.12-.37-1.82-6.49,2.88-12.73,5.68-19,8.44-16.63,7.32-33.25,14.64-49.9,21.91-2.55,1.11-5.21,1.99-7.81,2.97Zm148.95-70.85c-.28-2.75-.77-5.42-2.49-7.94-.11,2.85,.59,4.95,2.54,7.9,.22,1.34,.36,2.69,.67,4.01,.69,2.88,.62,5.74,.04,8.62-.47,2.32-1.42,4.12-4.27,3.88-.04,.51-.12,.86-.09,1.21,.32,3.32-1.06,6.03-3.26,8.31-.75,.78-1.95,1.25-3.03,1.54-.7,.19-1.56-.22-2.49-.38-.14,.5-.21,.94-.39,1.33-1.02,2.2-1.55,4.63-3.39,6.45-1.09,1.07-2.45,1.76-3.64,1.19-1.89-.92-2.64,.18-3.57,1.28-.29,.35-.53,.75-.86,1.05-2.02,1.88-4.16,1.54-5.66-.77-1.11-1.71-.95-3.49-.34-5.2,.5-1.42,.96-2.65,.11-4.13-.27-.47,.05-1.39,.31-2.02,.23-.56,.73-1.02,1.14-1.51,.58-.7,.77-1.31,.14-2.17-1.89-2.56-2.05-5.59-1.8-8.57,.2-2.42,.77-4.83,1.38-7.2,.37-1.46,1.07-2.85,1.71-4.24,.37-.79,.99-1.49,.81-2.25-2.21-.8-4.19-1.51-6.49-2.34v25.63c0,8.35-.13,16.71,.04,25.06,.17,8.38-.9,16.75-.31,25.44,.85-.55,1.39-.86,1.89-1.23,2.91-2.16,5.82-4.34,8.72-6.51,20.8-15.51,41.6-31.02,62.41-46.53,.51-.38,1.01-.8,1.58-1.06,.34-.15,.99-.19,1.16,.01,.22,.26,.25,.87,.1,1.22-.24,.57-.72,1.04-1.05,1.58-4.95,8.16-4.75,16.4-.33,25.29,.6-1.54,1.04-2.59,1.41-3.66,3.92-11.25,7.88-22.49,11.74-33.76,2.9-8.46,5.63-16.98,8.53-25.44,.58-1.68,.37-2.93-.89-4.15-2.21-2.14-4.15-4.61-6.57-6.48-7.57-5.85-15.97-9.54-25.83-8.92-2.87,.18-5.58,1-7.87,2.65-2.4,1.73-4.26,3.95-3.69,7.31,.12,.69,.12,1.49-.11,2.15-.58,1.72-.46,3.35,.17,5.01,.51,1.34,1.02,2.7,1.37,4.09,.37,1.47,.72,2.99,.77,4.49,.08,2.25-.08,4.52-.2,6.77-.1,1.81-.12,3.64-.49,5.4-.25,1.19-.87,2.4-1.62,3.36-1.81,2.31-4.78,2.18-6.69-.08-1.08-1.28-2.01-2.75-3.79-3.53-.35,.58-.65,1.12-1,1.62-.75,1.1-1.44,1.3-2.49,.52-.78-.59-1.38-1.41-2.06-2.13-.67-.72-1.33-1.44-2-2.16Zm-27.83,146.15c0-.9,.04-1.43,0-1.95-.54-5.62,.38-10.99,2.79-16.08,5.95-12.59,15.98-20.76,28.53-26.16,6.21-2.67,12.77-3.86,19.48-4.33,.73-.05,1.42-.04,1.75-.94,.55-1.51,1.16-2.99,1.81-4.46,.76-1.73,.85-3.23-.23-5.02-5.32-8.85-10.58-17.73-16.7-26.06-2.2-2.99-4.53-5.89-6.97-8.68-1.68-1.92-2.1-1.86-4.08-.4-10.06,7.43-20.1,14.89-30.2,22.28-1.23,.9-1.73,1.84-1.73,3.37,0,18.22,.32,36.45-.52,54.66-.11,2.42,.29,4.69,1.13,6.89,1,2.62,2.38,4.99,4.94,6.89Zm217.47-185.76c-.41,.52-.59,.73-.74,.95-1.27,1.86-2.81,2.07-4.07,.33-3.45-4.78-8.36-6.15-13.83-5.84-3.89,.22-7.54,1.69-11.05,3.38-.68,.33-1.23,.94-2.05,1.58,.74,.46,1.16,.75,1.61,1,3.17,1.76,3.26,5.11,.16,7.03-1.29,.8-2.56,1.73-4.27,1.43-.33-.06-.91,.27-1.08,.59-1.12,1.95-2.98,2.74-4.95,3.54-3.11,1.25-4.94,3.88-6.98,6.7,1.49,0,2.57-.06,3.65,.01,1.67,.11,2.21,1.04,1.98,2.72-.23,1.67-.96,2.8-2.49,3.58-1.19,.6-2.26,1.45-3.35,2.24-.26,.19-.54,.58-.55,.88-.04,2.18-1.45,3.67-2.64,5.23-.63,.82-.78,1.6-.52,2.52,1.63,5.63,3.25,11.26,4.93,16.88,.79,2.65,.9,2.66,3.6,1.81,.16-.05,.3-.19,.5-.33-.1-3.35,1.28-5.66,4.77-6.5,.92-.22,1.83-.62,2.32-1.69,.52-1.15,1.69-1.55,2.91-1.7,.67-.08,1.33-.2,2.2-.33-.95-1.22-1.72-2.22-2.5-3.2-1.67-2.08-1.73-4.53-1.52-6.99,.04-.49,.64-.99,1.09-1.36,.35-.29,.85-.4,1.43-.65-.55-.71-.96-1.19-1.32-1.7-1.41-2.01-1.34-3.3,.48-5,.65-.6,.89-1.2,1.12-2.02,.34-1.19,.31-2.19-.05-3.4-.69-2.33,.05-3.36,2.5-3.78,1.89-.32,3.27-.9,3.03-3.24-.08-.76,1.49-1.82,2.45-1.67,.53,.08,1.18,.55,1.43,1.02,.6,1.12-.64,3.08-1.95,3.28-2.22,.35-2.39,.44-2.35,2.63,.04,1.99-.62,3.37-2.68,3.74-1.01,.18-1.14,.83-1,1.57,.11,.59,.39,1.17,.71,1.69,1.31,2.16,1.22,3.29-.4,5.35-.53,.67-.91,1.45-1.12,1.79,1.15,1.8,2.07,3.24,3.12,4.87,0-1.07-.07-2.05,.02-3.03,.18-1.97,.3-3.96,.7-5.88,1.12-5.32,4.91-8.07,9.82-9.33,2.69-.69,5.54-.83,8.33-1.02,1.43-.1,2.64-.56,3.8-1.29,1.59-1,1.7-1.47,1.24-3.39-.15-.61-.22-1.64,.1-1.87,.71-.5,1.56-.12,2.16,.56,.3,.34,.63,.66,.86,1.04,2.48,4.08,1.93,9.42-1.17,12.54-.85,.86-.91,1.51-.41,2.33,1.7,2.74,.48,5.23-.77,7.59-1.26,2.37-5.43,4.11-8.01,3.63-1.56-.29-2.56-1.1-2.16-2.19,.78-2.15-.95-2.81-2.01-3.68-1.67-1.36-4.66-.79-5.76,.96-1.03,1.64-1.56,3.46-1.18,5.45,.26,1.32,.52,2.65,.73,3.98,.48,3.06,1.79,4.63,4.56,5.27,.03-.55,.03-1.09,.09-1.62,.12-1.1,.31-2.28,1.46-2.69,1.36-.48,2.7-.24,3.69,.96,.68,.83,1.32,1.69,2.05,2.63,1.38-1.88,3-1.72,4.74-.63,.3,.19,.72,.24,.96,.48,1.96,1.97,3.97,1.26,5.95,.1,.93-.54,1.78-1.25,2.63-1.92,1.48-1.16,2.88-2.44,4.43-3.52,2-1.4,4.07-2.76,6.37-2.15,.91-.99,1.61-1.74,2.3-2.52,.33-.37,.69-.74,.89-1.18,.34-.73,.57-1.51,.84-2.27,.55-1.54,1.1-3.08,1.58-4.45-1.57-.79-2.67,2.91-4.11-.18-.6,.49-1.13,.84-1.57,1.28-1.72,1.72-3.81,1.88-6.05,1.58-2.31-.31-3.09-2.18-1.65-4.08,.44-.58,1.06-1.03,1.43-1.64,.66-1.07,1.3-2.17,1.74-3.34,.18-.48,.02-1.42-.34-1.7-.69-.53-1.4-1.01-1.18-1.93,.2-.83,.57-1.67,1.08-2.36,1.96-2.63,3.29-5.42,2.73-8.82-.09-.53-.06-1.09-.04-1.63,.07-1.62-.45-3-1.72-4.25-1.51,1.28-2.86,.68-4.04-.48-1.21-1.2-2.61-2.12-4.27-2.17-1.57-.05-2.53-.77-3.36-2.16Zm-109.43,91.34c.05-.84,.13-1.37,.11-1.91-.15-4.34-.41-8.68-.46-13.03-.12-11.07-.12-22.14-.2-33.21-.12-16.14-.28-32.28-.43-48.43,0-.68-.13-1.36-.19-2.03l-.34-.03c-10.75,32.83-21.5,65.65-32.29,98.63h33.8Zm-6.75-98.54c.89-2.65,1.65-5.15,2.59-7.57,.54-1.4,.37-2.67-.15-3.94-1.89-4.63-4.43-8.9-7.6-12.77-7.21-8.81-16.32-14.79-27.31-17.74-4.09-1.1-8.32-1.66-12.55-1.08-.4,1.2-.65,2.36-1.15,3.39-1.56,3.19-2.7,6.37-2.7,10.07,0,3.81,1.19,7.05,3.07,10.2,.46,.77,.97,1.54,1.26,2.38,.53,1.53,1.03,3.09,1.33,4.68,.43,2.28,.03,3.94-2.01,4.76-.58,.23-1.06,.73-1.94,1.36,1.95,.07,1.93,.02,3.01-.39,4.83-1.82,9.69-3.54,14.98-3.1,1.34,.11,2.67,.35,4,.52,6.44,.78,12.47,2.87,18.26,5.69,2.25,1.1,4.46,2.3,6.9,3.55Zm12.13,98.41c4.8,.56,23.11,.36,24.82-.18-9.22-32.44-18.43-64.88-27.65-97.32l-.45,.06c1.09,32.43,2.18,64.87,3.28,97.44Zm93.95-185.48c-.33-1.11-.55-1.8-.76-2.5l-.52-.02-.72,3.08-.5-.15c.36-1.54,.73-3.08,1.14-4.82-1.4-1.05-2.45-3.19-4.63-2.59-1.27,2.62-2.37,4.95-3.53,7.26-1.28,2.55-2.6,5.09-3.92,7.62-.06,.12-.27,.16-.41,.24l-.6-1.39c-.7,1.21-1.17,2.14-1.76,2.99-.95,1.41-2,2.75-2.97,4.14-.62,.89-1.11,1.87-1.76,2.73-1.07,1.43-2.09,2.98-4.32,2.47-.32-.07-.86,.27-1.13,.57-.85,.93-1.51,1.95-3.04,1.96-.47,0-1,.92-1.37,1.49-.34,.51-.37,1.27-.77,1.68-2.03,2.07-4.22,3.98-6.18,6.1-1.84,1.98-3.69,4.01-5.15,6.26-2.01,3.09-3.66,6.42-5.47,9.64-2.92,5.19-5.85,10.37-8.77,15.56-1.27,2.25-1.03,4.6-.54,7.44,.51-.67,.78-.99,1.01-1.34,1.87-2.87,3.64-5.81,5.6-8.62,3.39-4.88,6.81-9.73,10.36-14.49,2.81-3.76,5.79-7.41,8.81-11.01,1.21-1.44,2.84-2.53,4.07-3.95,4.54-5.24,10.05-9.35,15.59-13.4,3.35-2.45,6.99-4.51,10.54-6.69,5.24-3.22,10.44-6.5,15.77-9.56,7.1-4.08,12.68-9.52,16.12-17.02,.6-1.3,1.22-2.58,1.84-3.87l.34,.12c-.21,1.38-.42,2.77-.64,4.15,.89-.65,1.33-1.42,1.67-2.23,.76-1.86,.41-2.48-1.49-2.85-.93-.18-1.67,.09-2.55,.53-1.9,.94-2.58,3.42-4.91,3.75-.19,.03-.38,.39-.47,.64-.8,2.23-2.77,2.93-4.66,3.74-1.21-1.61-2.39-2.03-4.14-1.48-.6,.19-1.19,.47-1.72,.81-4.65,3.03-9.19,6.18-11.91,11.26-.3,.57-.87,1-1.54,1.74Zm-202.64,131.35c.07,.48,.17,.7,.11,.82-.37,.72-.71,1.47-1.17,2.13-3.3,4.71-4.19,10.15-4.82,15.67-.1,.87,.04,1.82,.28,2.67,.37,1.33,.82,2.71,2.8,2.08,.08,.72-.07,1.53,.22,1.74,1.49,1.1,.21,1.95-.2,2.79-.46,.96-1.72,1.86-1.64,2.68,.16,1.59-.63,2.76-1,4.11-.26,.95-.55,1.93-.58,2.91-.04,1.3,.84,2.29,1.88,2.8,1.07,.53,1.82-.46,2.44-1.24,.46-.57,.82-1.21,1.53-2.27-1.42,.67-2.25,1.07-3.08,1.46,.08-.78,.39-1.2,.73-1.58,2.89-3.19,5.12-6.79,6.73-10.77,1.89-4.65,2.94-9.49,3.15-14.51,.14-3.26,.29-6.53,.67-9.77,.76-6.38,1.48-12.77,2.6-19.09,.92-5.24,2.29-10.42,3.66-15.57,.72-2.7,2.01-5.25,2.77-7.95,1.09-3.85,2.58-7.51,4.5-11.01,.47-.85,1.14-1.99,.91-2.74-.66-2.17-.99-4.54-2.84-6.64-1.85,2.7-3.96,4.92-5.28,7.73-2.36,5.03-2.85,10.85-6.58,15.29-.19,2.01-.98,4.2-.43,5.99,.68,2.22,.17,3.74-.82,5.55-2.13,3.85-5.43,7.12-5.95,11.81-.08,.72-.76,1.41-1.23,2.05-1.01,1.38-2.03,2.74-3.1,4.07-1.68,2.09-3.4,4.14-5.15,6.27q1.06,1.98,4.79,3.11l2.12-2.11c-.2,.94-.29,1.4-.43,2.08l2.43-.55Zm130.22-155.4c1.19-.89,2.5-1.5,3.27-2.53,1.24-1.64,3-2.76,4.05-4.63,.98-1.75,2.65-1.52,3.87,.19,.18,.26,.39,.5,.73,.94,2.03-2.22,3.4-4.51,3.85-7.25,.34-2.1,.12-4.2-1.19-5.99-.73-1-1.61-1.87-.04-2.87,.13-.08,.09-.5,.05-.74-.32-2.01-.61-4.03-1.04-6.02-.09-.43-.64-.93-1.08-1.07-1.9-.61-3.8-1.21-5.81-.22-.65,.32-1.85,.56-2.22,.22-1.33-1.24-2.45-.62-3.73-.08-.6,.26-1.82,.42-1.94,.19-.34-.64-.34-1.51-.29-2.28,.02-.4,.44-.77,.65-1.17,.53-1.02,1.04-2.06,1.72-3.4-1.17,.18-1.87,.31-2.57,.38-1.84,.18-3.18,.91-3.89,2.77-.31,.79-1.09,1.43-1.75,2.05-.79,.75-1.68,1.38-2.51,2.1-1.25,1.08-2.01,2.3-1.25,4.05,.23,.53,.35,1.37,.09,1.79-.58,.91-.18,1.42,.27,2.16,.86,1.43,.55,2.06-1.02,2.58-.37,.12-.75,.26-1.35,.46,1.52,2.47,3.73,3.08,6.1,3.28,1.18,.1,2.12-.46,2.5-1.68,.33-1.06-.11-2.37-1.44-2.86-1.42-.53-1.24-1.38-.95-2.35,.54-1.83,2.27-3.42,4.05-2.94,2.35,.63,4.48,.1,6.73-.05,2.07-.14,3.38,.99,3.89,2.78-2.7-.04-2.93,.12-3.96,2.89-.35,.93-.6,1.9-.95,2.82-1.23,3.23-3.39,5-6.74,4.9-.88-.03-1.76,0-2.71,0,.23,.91,.47,1.93,1.35,1.4,1.79-1.07,3.07-.14,4.33,.8q2.13-1.73,3.89-.64c-.89,1.96-.91,2.02-2.64,1.45-1.03-.34-1.91-.37-2.84,.23-.35,.23-1.06,.51-1.22,.36-1.25-1.21-2.64-.69-4.06-.63-.78,.03-1.69-.62-2.37-1.17-.54-.44-.82-1.2-1.22-1.81-1.65,1.86-2.85,3.3-4.15,4.62-.41,.41-1.11,.72-1.69,.75-1.23,.06-1.93,.6-2.42,1.69-.29,.64-.75,1.31-1.31,1.71-1.53,1.09-1.29,2.35-.64,3.88,.88-.2,1.67-.35,2.44-.57,.87-.25,1.72-.6,2.59-.83,1.73-.47,2.05-.3,3.14,1.08,.28,.35,.9,.8,1.22,.7,2.91-.87,5.99-1.35,8.42-3.37,.85-.71,1.73-1.75,2.79-1.03,.6,.41,.61,1.67,1.02,3Zm-50.21-35.67l-.47,.48c.61,1.01,1.23,2.03,1.84,3.04,.09,.15,.28,.3,.29,.45,.04,.95,.05,1.89,.07,2.84-.76-.09-1.51-.17-2.26-.28-.87-.12-2.16-.7-2.53-.33-1.28,1.26-2.46,.83-3.72,.27-1.96-.87-3.74-.1-5.49,.62-.38,.16-.67,.76-.8,1.22-.23,.83-.32,1.7-.44,2.56-.18,1.31-.34,2.63-.51,3.94,1.8,1.06,.67,2.11-.05,3.11-2.12,2.98-1.16,9.75,3.34,12.6,1.68-2.47,3.41-2.71,4.72-.43,1.11,1.93,3.01,3.03,4.34,4.72,.64,.82,1.89,1.15,3.17,1.87-.04-.82-.06-1.16-.07-1.5-.01-1.51,.86-2.15,2.17-1.56,.32,.14,.59,.42,.85,.67,2.33,2.29,5.55,2.41,8.4,3.42,.45,.16,1.32-.1,1.65-.47,1.58-1.77,1.53-1.8,3.69-1.17,1.3,.38,2.6,.8,3.92,1.09,1.13,.25,1.28-.78,1.62-1.48,.36-.74,.36-1.5-.58-1.75-1.39-.36-2.08-1.42-2.67-2.54-.52-1-1.2-1.47-2.36-1.47-.58,0-1.28-.29-1.7-.69-1.33-1.26-2.56-2.63-3.67-3.81-1.32,.82-2.45,1.77-3.75,2.27-1.38,.53-3.15-.7-4.42,.84-.09,.1-.56,.02-.76-.12-1.28-.86-2.52-.65-3.88-.15-.42,.15-1.32-.19-1.58-.58-.63-.98-1.25-1.72-2.55-1.7-.25,0-.56-.6-.72-.98-.06-.15,.21-.63,.35-.64,.42-.02,.91,.01,1.25,.22,.57,.35,1.12,1.28,1.56,1.22,1.52-.23,2.52,.65,3.51,1.38q1.93-1.27,4.06-.91,1.1,.19,1.64-1.56c-.8,.11-1.59,.27-2.39,.31-3.39,.17-6.01-1.59-7.15-4.74-.34-.93-.69-1.86-1.04-2.79-1.15-3-1.24-3.05-4.45-2.72,.35-.64,.52-1.27,.93-1.63,1.52-1.36,3.36-1.92,5.3-1.24,1.18,.41,2.05,.51,3.27-.02,2.32-1,4.61,.16,5.54,2.48,.44,1.1,.62,1.98-.89,2.59-1.28,.52-1.68,1.83-1.25,2.91,.45,1.16,1.37,1.72,2.58,1.56,2-.27,3.9-.87,5.27-2.47,.25-.29,.26-.78,.37-1.14-.31-.16-.45-.28-.62-.32-2.26-.51-2.38-.77-1.39-2.82,.18-.37,.47-.93,.33-1.17-.66-1.07-.3-2.05-.1-3.13,.13-.71-.07-1.64-.48-2.24-.54-.8-1.39-1.41-2.16-2.04-1.41-1.14-2.79-2.24-3.64-3.96-.37-.76-1.44-1.32-2.31-1.64-.99-.36-2.11-.35-3.17-.51Zm-31.66,136.88c.41,.54,.88,1.17,1.36,1.8,.6-.48,1.37-.87,1.75-1.48,.38-.61,.48-1.46,.49-2.21,0-.5-.34-1.02-.58-1.51-1.02-2.14-1.44-4.62-3.51-6.16-.83-3.13-2.11-6.16-1.76-9.52,.1-.91,.13-1.89-.45-3.09-.58,.99-.98,1.68-1.38,2.36,1.09-4.68,3.38-8.79,5.8-12.94-4.14-.38-4.86,.58-6.16,3.76-1.13,2.75-2.06,5.62-2.77,8.51-1.54,6.25-2.78,12.56-2.37,19.07,.24,3.87,.15,7.79,1.95,11.4,.02,.04-.15,.18-.31,.36-1.46-1.5-2.07-3.37-2.46-5.32-.36-1.76-.59-3.55-.96-5.31-.1-.46-.53-.86-1.07-1.68l-.53,2.26c.18-1.08-1.51-2.56,.67-3.25,.23-.07,.19-1,.28-1.53,.37-2.29,.79-4.57,1.09-6.87,.23-1.79,.38-3.6,.38-5.41,0-.7-.83-1.45-.74-2.09,.12-.83,.85-1.55,1.17-2.37,.08-.22-.37-.64-.58-.97l-.62-.06c-.34,3.04-2.57,5.46-2.33,8.8-.68-.21-1.32-.42-2.12-.67-.39,1.06-.95,1.97-1.02,2.91-.11,1.43-1.86,1.06-2.09,2.23-.09,.43-.31,.83-.47,1.25-.19,.5-.24,1.12-.58,1.48-1.21,1.3-.99,2.68-.25,4.01,.78,1.41,1.09,2.92,.82,4.42-.25,1.36,.96,1.96,1.38,1.79,1.11-.44,1.29,.02,1.37,.84,.07,.63-.05,1.28,.05,1.9,.35,2.21,.63,4.46,1.23,6.61,.23,.83,1.16,1.57,1.94,2.1,1.01,.69,1.27-.67,1.93-.98,.38-.18,.73-.42,.99-.57,.11-2.81-2.98-4.82-1.42-8.1,.59,3.04,1.58,5.5,2.97,7.76,.26-.05,.37-.03,.42-.08,1.69-1.63,3.28-3.31,2.52-5.99-.05-.16,.23-.41,.38-.68l1.96,1.34c-.28-2.65-2.25-4.61-1.73-7.24,.89,1.94,1.78,3.89,2.76,6.03,1.02-.68,1.92-1.28,2.66-1.77-.15-2.06-2.23-3.77-.07-5.13Zm94.36-10.39l.23-.08c.12-2.06,.35-4.11,.34-6.17-.01-3.53-.17-7.06-.26-10.59-.01-.43-.13-.93,.04-1.29,.9-1.87,1.84-3.71,2.84-5.53,.29-.53,.74-1.21,1.24-1.34,1.69-.44,1.98-1.59,1.97-3.06,0-.9,.12-1.8,.24-2.69,.54-3.99,2.51-4.86,5.84-2.62,.07,.04,.18,.02,.41,.04,.64-3.34,1.74-6.54,3.65-9.42,.7-1.05,1.3-2.16,1.98-3.23,.58-.9,.79-1.79,.04-2.94-1.63,.51-3.28,.96-4.88,1.56-4.43,1.67-8.5,3.82-11.88,7.33-6.48,6.73-8.21,14.64-6.45,23.51,.65,3.26,1.66,6.45,2.57,9.65,.65,2.3,1.39,4.57,2.09,6.85Zm-358.01,32.95l-.06,.61c1.54,1.05,3.07,2.13,4.63,3.15,6.07,3.94,11.25,8.95,16.58,13.77,2.07,1.87,3.88,4.04,5.68,6.19,3.15,3.76,6.22,7.59,9.27,11.43,2.52,3.17,4.94,6.42,7.45,9.59,.9,1.14,1.33,2.68,2.91,3.53,.28-3.08,.59-5.94-1.14-8.55-1.49-2.24-2.98-4.48-4.44-6.74-2.18-3.38-4.31-6.8-6.5-10.18-1.65-2.56-3.15-5.23-5.52-7.26-2.54-2.17-4.97-4.46-7.45-6.7-.33-.3-.9-.57-.94-.9-.41-3.66-4.72-2.45-6.07-4.91-.02-.04-.18-.04-.26,0-2.13,.78-3.02-.95-4.11-2.12-.9-.96-1.6-2.12-2.42-3.24-2.45,1.32-4.84,2.42-7.61,2.34Zm218.67,184.65c7.54,2.21,14.73-1.22,18.11-5.83,1.85-2.52,2.31-5.61,1.35-8.77-.32-1.06-.93-1.49-1.94-1.51-.63,0-1.3-.06-1.89,.11-4.67,1.28-9.09,3-12.28,6.91-2.18,2.67-3.32,5.68-3.34,9.09Zm196.77-253.55v.33c-.69,.11-1.36,.22-2.04,.33,.17,.73,.02,.87-.8,.71-2.62-.52-5.26-1.16-7.91-1.24-1.86-.06-3.74,.71-5.62,1.11v.53c1.01,.17,2.02,.38,3.05,.52,3.47,.46,6.94,.9,10.41,1.34,1.28,.16,2.14,1.15,3.17,1.62,1.5,.68,3.28,1.34,5.11,.91,.06-.01,.15,.11,.27,.2l-1.91,.48c1.57,.78,2.67,1.36,3.79,1.88,2.11,.98,4.16,.67,5.82-.84,1.34-1.22,3.01-1.53,4.53-2.25,.89-.42,1.8-.79,2.69-1.21,.11-.05,.14-.26,.2-.4l-.67-.43,1.93-.72c-.75-.12-1.01-.21-1.28-.21-2.52,.02-5,.14-7.53,.61-2.83,.52-5.86-.02-8.8-.1v-.22l3.23-.23,.07-.31-1.69-.65c.76,0,1.17-.02,1.57,0,3.32,.18,6.64,.39,9.97,.54,.62,.03,1.28-.07,1.85-.28,1.08-.39,2.05-.46,3.09,.2,.33,.21,1.2,.16,1.38-.08,.61-.86,1.16-1.82,1.47-2.82,.27-.87-.46-1.35-1.32-.94-.48,.23-.9,.6-1.36,.89-1.51,.92-3.16,1.47-4.92,1.13-3-.58-5.96-1.37-8.96-1.95-2.29-.45-4.63-1.06-6.93-1-4.15,.11-8.29,.66-12.43,1.06-.44,.04-.86,.36-1.29,.56l.07,.38c3.92,.18,7.84,.36,11.76,.54ZM71.8,378.16c.25,2.18-.31,4.49,1.6,6.31,.73-.72,1.69-1.29,2.08-2.13,.68-1.44,1.92-1.87,3.19-2.12,1.91-.37,3.19-1.37,3.7-3.17,.36-1.27,1.09-1.72,2.63-1.76-.14,.97-.18,1.83-.4,2.65-.34,1.22,.06,1.87,1.26,2.14,1.76-5.89,6.89-7.12,11.82-8.8-.57-.34-1.13-.62-1.66-.56-2.76,.3-5.51,.67-8.27,1.03-1.15,.15-2.29,.43-3.44,.51-2.88,.2-5.8-.37-8.65,.51-.41,.13-.9,0-1.35-.04-1.8-.15-3.59-.41-5.39-.43-2.3-.02-4.45-.46-6.47-1.58-1.1-.61-2.24-1.15-3.41-1.61-.32-.12-.89,.09-1.18,.34-.18,.15-.18,.77-.02,1.01,1.53,2.2,3.11,4.36,4.7,6.52,.15,.2,.46,.27,.67,.43,2.62,1.95,5.48,1.06,8.56,.74Zm388.98-116.22c.33-.5,.71-.98,.98-1.51,1.01-2.01,1.89-4.09,2.99-6.05,2.64-4.72,5.41-9.38,8.07-14.09,1.41-2.5,2.83-5.01,4.03-7.62,1.58-3.43,3.3-6.85,3.37-10.77,0-.31,.44-.62,.65-.9,.79,1.28,1.4,2.44,2.18,3.48,.88,1.17,1.3,1.19,2.38,.25,.43-.38,.71-.95,1.2-1.64-1.02-.39-1.8-.69-2.58-.99,1.29-3.82,1.17-4.19-2.05-6.51-.81,.66-1.81,1.2-2.4,2.04-.4,.58-.1,1.6-.33,2.36-.31,1.03-.77,2.03-1.28,2.98-.81,1.51-1.73,2.97-2.59,4.46-1.52,2.61-2.52,5.36-2.55,8.43,0,.71-.2,1.44-.45,2.1-.12,.32-.67,.76-.89,.7-.43-.12-.91-.5-1.1-.9-.21-.47-.03-1.09-.18-1.6-.25-.84-.44-1.84-1.59-1.91-1.23-.08-1.5,.97-1.65,1.8-.24,1.41-.23,2.86-.37,4.29-.08,.78,.02,1.93-.44,2.26-1.23,.89-.99,2.02-1,3.16-.01,1.24,0,2.47,0,3.71-.54-1.9,.05-3.87-.67-5.96-2.32,2.52,.51,5.22-.71,7.77-1.93-1.1-.38-3.22-1.65-4.59-2.29,4.98-1.21,10.15-1.36,15.27Zm-381.69,26.26c-1.95-4.09-2.69-8.29-2.47-12.7,.07-1.42-.64-2.43-2.02-2.85-.93-.28-1.9-.47-2.86-.63-1.4-.23-2.22,.33-2.11,1.85-.41-.11-.68-.17-.93-.26-1.86-.66-3.76-1.26-4.36-3.51-.06-.23-.36-.56-.55-.56-1.68,.03-2.23-1.51-3.31-2.3-1.35-.98-2.59-2.35-4.49-1.6,4.17,11.07,12.13,18.31,23.11,22.55Zm51.24,8.79c-.91,.21-2.03,.17-2.69,.69-1.31,1.05-2.4,2.38-3.51,3.65-1.34,1.54,.71,2.74,.6,4.13l-2.64,.98c.57,.72,.85,1.19,1.24,1.55,1.16,1.07,1.27,.88,2.53-.27,1.14-1.04,1.26-2.47,1.94-4.11,.4,.78,.69,1.17,.81,1.62,.4,1.55,.5,3.23,1.16,4.64,1.66,3.55,3.44,7.07,5.41,10.46,2.25,3.87,4.73,7.6,7.14,11.38,1.55,2.44,3.14,4.86,4.72,7.29l.53-.16c-.32-2.43-.64-4.87-.96-7.3h-.28l-.26,2.61c-.24-1.34-.05-2.65,.09-3.96,.16-1.51,.66-3.11-1.15-4.65v6.83c-.32-1.73-.28-3.45-.34-5.17-.02-.58-.14-1.47-.5-1.66-1.28-.67-1.02-1.76-1.12-2.82-.15-1.51-.31-3.03-.65-4.51-.32-1.39-.75-1.51-2.45-1.19l.17,3.4h-.18l-.42-2.24-.49,.07v3.14h-1.79c-.22-.82-.65-1.76-.67-2.7-.08-3.58-1.6-6.59-3.51-9.47-.89-1.35-1.75-2.73-2.58-4.12-1.52-2.52-1.6-5.05-.12-8.11Zm-66.83,94.14c-.56,1.36-1.09,2.37-1.39,3.44-1.38,4.88-.35,9.62,1.18,14.25,.36,1.1,1.49,1.94,2.35,2.99,.35-.55,.5-.88,.74-1.13,.23-.24,.55-.4,.8-.58,4.22,3.78,4.85,4.02,7.66,2.82-6-2.49-9.07-7.33-10.08-13.2-.98-5.68-.6-11.42,3.46-16.29l-.46-.28-2.4,1.71,.67-1.86c-2.56,1.21-4.82,1.99-7.28,1.94-2.53-.06-4.96-.45-7.23-2.12l2.18-1.07-4.07-.63c.85,4.74,4.07,6.55,8.44,7.48-.57,.74-.89,1.22-1.28,1.63-.36,.38-.99,.61-1.16,1.04-.24,.59-.42,1.44-.17,1.95,.43,.89,1.22,.36,1.88,.06,1.47-.67,2.93-1.36,4.42-1.96,.42-.17,.94-.1,1.73-.17ZM494.33,240.85c1.72-.58,3.28-.76,4.87-.19,3.6,1.28,7.43,1.18,11.13,1.83l-1.59,.49c1.56,.55,2.7,1.06,3.91,1.36,1.43,.35,4.56-.72,4.94-2.52,.27-1.28-.8-2.59-2.94-3.41-1.51-.58-3.11-.94-4.58-1.6-1.68-.76-3.34-.8-5.02-.28-3.78,1.16-7.61,.33-11.4,.71l-.09-.6,9.73-2.29c-1.6-.45-3.14-.51-4.67-.43-.79,.04-1.56,.45-2.35,.52-2.35,.22-4.22,1.5-6.19,2.59-.37,.21-1.16,.38-1.29,.21-1.15-1.51-1.91-.03-2.63,.41-.98,.59-.36,1.38,.16,2.03,2.17-.03,3.65-2.44,6.07-1.7-2.12,1.11-4.4,1.8-6.52,2.84-2.18,1.07-4.38,2.27-5.76,4.98,4.4-2.08,8.42-3.99,12.34-5.85q1.61,1.82,4.46,1.35l-2.57-.45Zm-23.79-98.56c-2.22,.18-3.6,1.04-4.99,1.76-1.67,.87-1.35,2.8-1.83,4.12-1.14,.31-2.24-.63-3.07,.64,1.43,1.82,.82,4.58,3.38,6.34h-3.25c2.15,1.86,2.93,3.84,2.59,6.23-.05,.33,.31,1.04,.49,1.04,1.24,0,.79,.66,.52,1.22-.91,1.84-1.57,3.74-1.65,6.34,1.65-1.95,3.16-3.41,4.27-5.13,1.12-1.73,2.06-3.64,2.67-5.59,.7-2.27,.68-4.78,2.77-6.89h-1.96c-.24-1.59-.35-3.22-.75-4.77-.44-1.72-.94-3.37,.82-5.29Zm-90.22,28.35c0-1.16,.12-1.7-.02-2.16-.32-1.03-.74-2.03-1.18-3.02-.29-.66-.73-1.21,.06-1.91,.32-.28,.33-.98,.4-1.5,.29-2.01,.6-4,2.24-5.66l-2.06,.1c.88-2.25,1.74-4.42,2.7-6.88-1.19-.08-2.13-.15-3.07-.22-1.42-4.11-2.8-5.23-6.38-5.3,.19,1.33,.61,2.7,.51,4.03-.14,1.92-.65,3.82-1.03,5.86h-1.44c.67,1.4,1.65,2.63,1.83,3.96,.68,5.05,3.38,8.84,7.44,12.69Zm-48.03,100.29c-1.27,.88-2.17,1.66-3.19,2.18-2.65,1.36-4.7,3.33-6.36,5.76-1.12,1.65-2.28,3.27-3.39,4.93-1.11,1.66-2.65,2.75-4.55,3.23-1,.25-2.08,.19-3.59,.3,.73,1,1.11,2.05,1.85,2.44,1.58,.82,3.3,1.41,5.02,1.89,1.74,.48,2.22-1.53,3.85-2.31,.14,.28,.31,.61,.47,.94,.2,.41,.38,.83,.57,1.25,2.19-2.18,2.43-3.54,1.15-4.75-.19-.19-.64-.26-.91-.18-1.34,.4-2.36,.52-4.19,.3,.42-.47,.69-.9,1.07-1.18,1.08-.81,2.31-1.44,3.28-2.36,4.47-4.27,7.98-9.34,11.59-14.32,.27-.38,.49-1.26,.29-1.45-.99-.94-.14-1.92-.22-2.85-.08-.95-.12-1.89-.2-3.23-.76,.48-1.38,.66-1.43,.94-.34,1.85-1.9,2.2-3.25,2.92-1.26,.68-2.41,1.56-3.58,2.4-.96,.68-.88,1.47-.11,2.27,1.89-.17,3.87-1.13,5.83,.91Zm-202.7,57.77c-1.76-2.96-4.73-4.17-7.7-5.36-.99-.39-2.19-.42-3.01-1-.62-.43-2.19,.64-1.9-1.15-1.08-.04-2.17-.11-3.25-.13-1.09-.02-2.18,.01-3.27,0-1.81-.04-3.7,.23-5.4-.22-4.63-1.22-8.08,1.46-11.85,3.17-.08,.03-.12,.14-.19,.19-1.51,1.11-1.21,3.26,.97,4.21,2.56,1.12,4.58-.1,7.13-1l-1.46-.45c3.15-.64,6.49-1.27,9.8-2.02,1.62-.37,3.14-1.13,4.9-.44,.6,.24,1.41-.05,2.12-.1-5.73-2.15-11.39-.72-17.06-.14,5.08-.96,10.13-1.86,15.36-.98,5.29,.89,9.83,3.6,14.81,5.42Zm367.05,27.83c1.48-1.56,3.18-.42,4.88-1.59h-5.6v-.56c5.24-1.29,10.73,.8,16.1-.7-.26-.37-.34-.61-.47-.64-2.58-.59-4.81-2.85-7.81-1.5-.6,.27-1.44,.02-2.16,.04-.88,.03-1.76,.09-2.65,.14v.51h6.8l-.02,.25c-2.86,.17-5.72,.33-8.56,.5,.05-1,.03-1.07,.42-1.17,.95-.23,1.91-.53,2.87-.54,1.52-.02,2.89-.38,4.4-1.11q-1.93-1.04-2.6-.65c-2.07,1.21-3.55,1.37-6.17,.59,1.83-1.2,4.08,.3,5.9-1.29-1.72-.76-3.04-1.91-4.92-1.41-1.73,.46-3.48,.86-5.47,1.34l2.19,.44c-.4,.32-1.01,.57-1.13,.96-.27,.87,.51,.99,1.14,1.12,.03,0,.04,.09,.09,.23l-3.01-.33c.04,.72,.07,1.23,.11,1.8l4.69-.31,.16,.6c-.94,.49-1.88,.98-2.84,1.48,.22,.12,.37,.2,.52,.28,.9,.52-.13,.27-.14,.27-2.14,.67-4.3,1.27-6.42,2-.54,.18-.96,.74-1.43,1.13,1.4,.16,2.49-.16,3.59-.44,1.04-.27,2.08-.65,3.14-.71,1.03-.05,1.97-1.16,3.43-.28-2.88,.97-5.59,1.51-7.79,3.26,2.45-.48,4.84-1.17,7.24-1.83,1.56-.42,3.12-1.02,4.71-1.13,2.88-.2,5.79,.08,8.59-.96,.65-.24,1.44-.1,2.16-.19,1.69-.22,3.38-.48,5.08-.73-.84-.47-1.65-.63-2.43-.53-3.04,.38-6.09,.76-9.1,1.31-2.38,.43-4.74,.32-7.5,.34Zm-67.24-199.36l-.65-.15c-.23,1.13-.5,2.25-.69,3.38-.16,.96-.29,1.94-.28,2.91,0,.39,1.09,.68,.32,1.21-.3,.21-.98,0-1.44-.16-.36-.13-.64-.49-.89-.69-1.84,1.64-1.22,3.78-1.52,5.74,.74-.95,1.47-1.9,2.26-2.92l1.36,1.1c1.68-.61,2.59-1.88,3.1-3.51,.03-.1,.23-.15,.36-.22,.4,.65,.78,1.28,1.17,1.9,.48-1.16,.65-2.22,.45-3.21-.61-2.92-1.42-5.8-2.04-8.72-.24-1.13-.53-2.45-.17-3.46,.6-1.67,1.69-3.16,2.6-4.71,.6-1.02,1.29-1.49,2.66-1.1,1.58,.44,3.12-.1,3.91-1.69,.27-.54,.27-1.49-.04-1.95-.32-.47-1.16-.7-1.81-.78-.49-.06-1.07,.21-1.54,.46-2.54,1.35-4.62,3.14-5.76,5.9-1.15,2.77-1.87,5.62-1.67,8.63q-2.15-.07-2.72,2.47c.81-1.56,1.89-1.92,2.87-1.19,.53,.39,.66,1.42,.83,2.2,.19,.83,.62,1.77-.39,2.4l-.3-3.83Zm-17.37,6.99c.29,.67,.47,1.17,.71,1.63,1.23,2.32,2.24,2.7,4.42,1.65,.71,.87,1.42,1.73,2.37,2.9,0-2.57-.44-4.53-1.95-6.16-.77,.46-1.37,1.45-2.67,.76,.26-.52,.82-1.11,.7-1.48-.68-1.99,.01-4.39-1.74-6.07-.2-.19-.33-.68-.23-.92,1.16-2.81-.02-5.41-.88-7.93-1.23-3.57-3.6-6.25-7.34-7.48-.82-.27-1.55-.45-2.24,.3-.53,.58-.89,1.13-.55,1.94,.46,1.11,1.48,1.74,3.08,1.69-.42-.5-.85-.82-1.01-1.24-.15-.4-.02-.9-.02-1.36,.39,.08,.98,.01,1.14,.25,1.75,2.46,4.55,3.99,5.59,7.18,.54,1.67,1.16,3.02,.69,4.82-.75,2.89-1.3,5.84-1.86,8.77-.19,1-.49,2.1,.63,3.15,.43-.88,.76-1.56,1.16-2.39Zm-32.72-17.26l1.4-1.13c.62,.97,1.21,.69,1.95,.06,.74-.63,2.25,.04,2.54-1.45,.94,.43,2.13,.13,2.88,1.19,.58,.83,1.29,.67,2.33,.31,1.66-.58,3.54-.55,5.33-.72,.16-.02,.34,.41,.56,.55,.25,.16,.55,.24,.97,.41,.22-1.19-.47-1.68-1.02-2.23-.37-.37-1.04-.7-1.09-1.11-.24-1.7-1.46-1.56-2.64-1.62-2.79-.15-5.35,.55-7.64,2.13-.73-1.33,.48-2.78-.58-4.13-.63,.69-1.14,1.23-1.66,1.79q-2.36-2.68-4.74-2.63c.61,1.29,1.49,2.51,1.74,3.86,.24,1.32-.16,2.75-.32,4.71Zm85.31-9.6l-.14-.56c-.8,.24-1.72,.31-2.38,.76-.78,.53-1.33,1.38-1.96,2.06-.68-.56-1.24-1.03-2.09-1.74v4.52c-2.5-2.14-5.27-2.39-8.1-2.23-.73,.04-2,.48-2.05,.87-.17,1.31-1.34,1.64-1.89,2.51-.23,.36-.23,.87-.42,1.68,.8-.53,1.25-1.08,1.69-1.07,1.49,.03,3.12-.09,4.42,.49,1.51,.67,2.42,.5,3.63-.51,.6-.51,1.79-.68,2.61-.5,1.15,.25,2.19,.97,3.3,1.5,.42-.53,.74-.93,.97-1.23,.33,.34,.71,1.02,1,.98,.84-.1,.46-.71,.3-1.23-.18-.59-.4-1.24-.33-1.83,.2-1.56-.25-3.37,1.43-4.46Zm87.8,170.26c-.18,.46-.33,.65-.29,.78,.9,3.08,1.13,6.17,.36,9.33-.27,1.11-.48,2.34-.3,3.44,.39,2.41-.07,4.62-.98,6.81-.58,1.4-1.18,2.81-1.68,4.24-.43,1.23-.1,2.2,.8,2.55,1.1,.42,1.98,.02,2.52-.98,.55-1.03,.98-2.12,1.47-3.18,1.92-4.17,.57-8.55,.66-12.81,.06-2.8-1.07-5.62-1.71-8.42-.13-.55-.49-1.04-.84-1.76ZM60.53,393.36c-.52,.74-.91,1.06-.98,1.44-.47,2.46-.85,4.93-1.29,7.4-.57,3.14,.21,6.28,.02,9.42-.17,2.88,.97,5.41,2.35,7.85,.22,.39,.48,.92,.83,1.03,.71,.22,1.61,.46,2.22,.19,.44-.19,.67-1.16,.73-1.81,.05-.48-.34-.99-.52-1.5-1.02-2.84-2.79-5.41-2.84-8.59-.03-1.73-.26-3.47-.42-5.2-.15-1.6-.46-3.19-.48-4.79-.02-1.66,.21-3.32,.37-5.45ZM439.49,179.03l-.13,.41c-.87,.17-1.75,.28-2.61,.51-.8,.22-1.57,.56-2.36,.84,1.51,.12,2.93-.15,4.36-.25,.49-.03,1.17,.23,1.5,.6,1.21,1.3,3.42,1.34,4.74-.01,.26-.27,.57-.79,.78-.75,1.57,.26,2.83-.78,4.34-.89,1.73-.12,2.37-1.73,3.16-3.05,.21-.35,.74-.51,1.1-.79,1.81-1.43,2.06-3.55,2.38-5.59,.12-.78-.88-1.61-1.37-1.24-.6,.46-1.54,1.37-1.4,1.76,.67,1.87-.58,2.61-1.65,3.58-.52,.47-1.08,1.05-1.26,1.68-.48,1.65-1.69,2.23-3.15,2.61-1.58,.41-3.14,.88-4.72,1.28-.42,.1-.89,.02-1.34,.02,.73-.55,1.55-.63,2.22-.99,.36-.2,.66-.91,.6-1.34-.05-.37-.69-.99-.99-.95-1.84,.26-3.67,.64-5.49,1.06-.21,.05-.47,.58-.42,.84,.04,.2,.49,.37,.78,.48,.3,.11,.63,.13,.94,.19ZM108.32,410.54l.43-.54c-.51-.59-.97-1.22-1.52-1.75-2.54-2.43-5.3-4.35-9.1-3.83-.71,.1-1.45,.02-2.17,0-3.33-.07-6.88,2.65-7.84,6.12,1.68,.03,2.01,1.03,1.8,2.49-.22,1.53,.57,2.79,1.34,4,.21,.33,.79,.42,1.78,.91-.8-1.42-1.27-2.24-1.62-2.87,.96-3.9,2.29-7.36,6.64-8.42,4.3-1.05,7.34,1.18,10.25,3.88Zm235.53-143.02c.43-.4,.92-.69,1.17-1.12,3.47-5.97,6.9-11.96,10.45-18.12-7.23,2.03-13.32,14.36-11.62,19.24ZM62.13,370.04c.97,.43,1.75,.95,2.6,1.12,1.84,.36,3.72,.76,5.59,.77,5.41,.02,10.84,.37,16.23-.51,2.9-.47,5.8-.91,8.69-1.36-3.21-.75-6.45-1.09-9.66-1.62-1.58-.27-2.93,.48-4.41,.61-3.37,.29-6.78,.52-10.07,1.24-2.03,.44-3.74,.19-5.42-.71-1.19-.64-2.2-.62-3.53,.47Zm459.67-25.21c-.34,.4-.52,.6-.67,.81-1.34,1.95-1.9,1.93-3.22-.09-.44-.68-.79-1.44-1.33-2.02-.64-.69-1.34-1.69-2.48-.95-.71,.46-.33,2.75,.49,3.42,.2,.17,.49,.23,.71,.39,.51,.37,1.04,.73,1.48,1.17,3.26,3.21,7.71,3.15,12.08,.34-1.11-.15-1.96-.24-2.8-.38-.39-.06-1.07-.17-1.1-.33-.27-1.81-1.89-1.66-3.16-2.36Zm-99.74-176.6c1.57-2.9,3.19-5.26,3.76-8.29l-8.58,.64c1.27,2.81,1.89,5.76,4.82,7.65ZM85.21,396.53c-.23,2.62,1.45,4.32,3.03,5.87,1.18,1.15,2.8,1.45,4.65,1.3,3.48-.27,7.06-.62,10.4,.96,.75,.35,1.5,.69,2.62,1.2-.32-.64-.39-.89-.54-1.07-.23-.27-.49-.57-.79-.73-3.03-1.63-6.17-2.9-9.7-2.89-3.94,.01-7.48-.84-9.68-4.64Zm465.35-210.64c-.92,1.28-1.73,2.25-2.37,3.32-.64,1.06-.98,2.31-1.69,3.29-.67,.92-1.7,1.58-2.52,2.4-.88,.88-1.75,1.78-2.56,2.72-.74,.86-2.25,.93-2.65,2.48,3.18-1.46,8.2-5.22,10.27-7.57,.34-.38,.86-.88,1.28-.86,1.29,.07,1.38-.88,1.76-1.68,.8-1.72-.77-2.56-1.5-4.1Zm-225.62,164.22c-.79,2.78-1.68,5.36-2.21,8.02-.28,1.41-.11,2.85-1.99,3.16-.49,1.31,.83,2.96-.8,4.06-.1-.46-.2-.94-.39-1.8-.99,1.65-1.77,2.96-2.73,4.55,.82,.04,1.18-.02,1.5,.09,1.06,.35,1.96,.31,2.99-.32,1.27-.77,.79-1.7,.82-2.76,.05-1.44,.5-2.92,2.52-3.35-1.07-.95-.88-1.91-.61-3.16,.59-2.71,1.49-5.44,.9-8.48Zm70.47-192.62c-1.26-3.03-1.44-3.17-3.88-3.32,.73,1.14,1.91,2.37,2.37,3.83,.89,2.84,2.53,4.66,5.43,5.35-3.73-4.94-1.43-7.48,2.46-8.91-.95-.47-1.49-1.1-2.74-.9-2.17,.36-2.77,1.93-3.64,3.94ZM86.58,367.62l-.14,.49c3.75,.56,7.53,1,11.25,1.7,3.7,.7,7.37,1.43,11.16,1.32-4.18-1.89-8.57-2.95-13.02-3.74-1.66-.29-3.37-.52-5.05-.5-1.4,.02-2.8,.46-4.2,.72ZM451.97,152.9c-3.33,.11-3.98,2.23-4.44,4.54,.02-1.89-.53-3.71-2.15-4.42-1.02-.44-2.82-1.07-3.79,.69,1.39,.47,2.71,.97,3.52,2.35,1.13,1.93,.32,3.75-.43,5.66,2.73-.26,3.67-2.05,4.23-3.99,.52-1.81,1.37-3.33,3.06-4.84ZM69.12,285.55c-5.02-3.23-8.64-7.95-13.23-12.28-.38,.58-.97,1.07-.9,1.44,.15,.85,.39,2.02,1,2.4,1.51,.94,3.21,1.54,3.63,3.56,.03,.13,.48,.16,.71,.27,.7,.35,1.4,.69,2.07,1.09,2.17,1.29,4.03,3.13,6.72,3.51Zm26.75,25.83c.81,.21,1.61,.58,2.42,.61,5.33,.2,10.47,1.3,15.52,2.94,.51,.17,1.07,.18,2,.32-4.06-3.75-15.43-5.26-19.94-3.87Zm3.14,127.97l.06,.49c1.39,.26,2.78,.66,4.18,.75,3.86,.26,7.73,.39,11.6,.58,.54,.03,1.1-.02,1.62,.11,3.22,.75,6.43,1.55,9.65,2.31,.42,.1,.87,.06,1.3,.08-1.49-1-3.07-1.61-4.65-2.17-4.77-1.69-9.83-.76-14.69-1.63-1.67-.3-3.38-.41-5.07-.51-1.33-.08-2.67-.02-4-.02Zm3.38-.94c2.64,0,4.8,.07,6.96-.02,2.15-.08,4.31-.19,6.42-.53,2.08-.33,4.07,1.21,6.39,.18-5.67-1.77-11.24-1.49-16.8-1.45-1.13,0-2.07,.43-2.98,1.81Zm3.12-120.48l-.02,.3c.24,.1,.46,.25,.71,.3,4.1,.86,8.32,1.18,12.26,2.74,1.25,.49,2.45,1.11,3.71,1.55,.28,.1,.72-.27,1.09-.43-.18-.27-.31-.67-.56-.77-1.07-.43-2.27-.61-3.25-1.18-2.29-1.33-4.75-2.16-7.32-2.47-2.17-.27-4.41-.05-6.61-.05Zm24.02,73.01c-.47-1.63-3.02-3.94-4.94-4.6-3.91-1.35-7.69-3.3-12.31-3.09,.68,.92,.31,2.24,1.95,1.96,3.94-.68,7.41,.6,10.63,2.8,1.52,1.03,3.11,1.96,4.67,2.94ZM455.37,139.7c-2.41-1.69-7.79-3.06-10.01-2.64-.61,.12-1.25,.28-1.77,.6-.29,.18-.48,.71-.49,1.08,0,.18,.49,.46,.8,.55,.33,.09,.74,.08,1.07-.02,2.42-.74,4.81-.1,7.21,.09,.95,.07,1.91,.2,3.19,.34ZM87.69,443.73c6.2-1.53,12.17-.21,17.94-1.92-1.23-.24-2.86,.16-3.62-.47-1.7-1.42-3.58-.47-5.62-1.43,1.02,1.99,2.8,.65,3.9,1.9-.73,.09-1.29,.22-1.85,.22-2.53,.02-5.06,.01-7.59,.01-1.06,0-2.14-.07-3.15,1.69Zm421.57-86.37c3.56,1.24,6.71,1.02,9.85,.74,1.44-.13,2.81-.33,4.28,.14,.99,.32,2.17,.05,3.27,.04-1.86-1.78-3.96-1.08-5.96-1.01-1.98,.07-3.97,.76-6.55-.24,1.41-.29,2.21-.46,3.02-.63-.92-.38-2.11-.75-2.62-.31-1.48,1.24-3.25,.81-5.28,1.27Zm-105.89-177.37c-.94-2.56-4.04-5.34-4.91-4.42l1.4,1.21c-.36,.73-1,1.41-.93,2.01,.13,1.01,1.15,1.26,2.09,1.3,.69,.03,1.39-.06,2.35-.1Zm97.8,159.26l.48-.33c-.84-2.01-1.68-4.02-2.54-6.02-.07-.15-.21-.34-.36-.38-.3-.1-.66-.2-.95-.12-.16,.04-.27,.42-.32,.67-.14,.68,1.21,1.4-.05,2.07,.39,.65,.68,1.39,1.19,1.92,.77,.81,1.69,1.47,2.55,2.19Zm-421.74-25.21c-3.44-.04-6.89-.09-10.33-.12-.05,0-.12,.13-.16,.2-.05,.08-.07,.16-.12,.27,3.56,2.76,7.08,1.02,10.61-.36Zm-8.31-.69c4.17,.79,10.95,.43,13.21-.7-4.16-.8-11-.43-13.21,.7ZM435.45,156.36l-2.05-2.81q1.27-1.46-.16-4.21c-1.63,1.72-1.62,3.54-.56,5.46,.52,.95,.81,2.34,2.78,1.57ZM136.04,391.99c-.81-3.51-5.89-9.03-8.44-9.68,2.9,3.33,5.67,6.51,8.44,9.68Zm-36.01-63.34c4.27,0,8.15-1.64,12.11-2.94-4.43-.66-8.17,1.56-12.11,2.94Zm409.65-84.52c-3.91-.99-7.64-2.94-11.86-2.3,3.85,1.31,7.72,2.53,11.86,2.3ZM116.16,415.68c-2.07,1.51-3.39,4.75-3.33,7.65,2.35-1.99,3.28-4.38,3.33-7.65ZM407.48,157.51c3.04-.76,3.81-2.67,2.99-6.19-.64,.26-1.78,.55-1.77,.76,.05,.79,.48,1.55,.78,2.36l-2,3.07Zm143.17,180.29c-1.18-.83-2.31-2.13-3.82-1.07-.47,.33-.3,1.56-.45,2.52,1.89,.14,3.42,.39,4.27-1.45ZM63.05,424.12c.95,.52,1.58,1,2.29,1.21,.57,.17,1.37,.22,1.82-.07,1.03-.66,.5-1.68,.44-2.52-1.86-.89-2.99,.2-4.55,1.38Zm283.49-134.15c.53-2.54-.06-4.75-1.51-5.9-.76,2.28,.34,3.96,1.51,5.9ZM63.05,383.55c-2.33-.54-6.84-.5-8.73,.08,3,1.25,4.97,1.23,8.73-.08Zm3.95-2.33l-.18-.72c-.43,0-.89-.08-1.3,.01-1.5,.34-2.88,1.54-4.54,.54-.13,.23-.23,.5-.41,.68-.29,.3-.63,.54-1.19,1,3.01,.38,5.33-.52,7.62-1.52Zm485.38-84.57c-.58-.67-1.22-1.66-1.39-1.58-1.61,.73-2.91-.29-4.34-.55-.42-.08-.89,.16-1.93,.38,2.71,1.31,4.9,2.01,7.66,1.75ZM99.47,445.85c1.82,.77,3.59,1.64,5.73,1.73-1.05-2.35-1.77-2.59-5.73-1.73ZM488.71,245.27c2.97,.11,4.95-.57,5.92-1.94-2.03,.3-4.21-.25-5.92,1.94Zm39.12,113.87c-2.03-1.01-3.61-.05-5.25,.14-1.75,.2-3.52,.22-5.28,.32l.03,.56c3.42,.22,6.8-.33,10.49-1.02Zm-17.67,4.29c2.11-.71,3.79-1.28,6-2.03-3.92-1.03-5.09-.63-6,2.03Zm-173.04-72.19l-.77-.09c.28,3.05,.55,6.11,.83,9.16l.53-.04c-.19-3.01-.39-6.02-.58-9.03Z"/></svg>