<?xml version="1.0" encoding="UTF-8"?><svg id="Layer_1" xmlns="http://www.w3.org/2000/svg" viewBox="0 0 612 792"><defs><style>.cls-1{fill:#fff;}</style></defs><path class="cls-1" d="M97.62,386.7c.37-.35,.63-.59,.89-.84,.87-.83,.89-1.61,.05-2.43-.3-.3-.6-.61-.95-.85-1-.71-2.07-.22-2.1,1.01-.05,2.13-.02,4.26-.02,6.38,0,.38,.02,.75,.01,1.13-.05,1.79-.16,3.59-.16,5.38,0,4.12,.18,8.24,.06,12.35-.11,3.64,.08,7.27,0,10.91-.11,4.97-.13,9.93-.17,14.9-.04,3.69-.01,7.39-.11,11.08-.04,1.5,.38,2.8,1.14,4.02,1.14,1.86,4.38,2.53,6.18,1.27,1.02-.71,1.94-1.51,2.14-2.87,.04-.25,.49-.44,.75-.66,.21,.28,.63,.59,.59,.84-.09,.63-.24,1.34-.6,1.84-2.76,3.75-6.3,6.47-10.73,8.03-1.68,.59-3.13-.08-4.44-.84-1.81-1.04-3.27-2.54-4.42-4.33-.61-.94-1-1.92-1.01-3.05,0-.27-.13-.54-.24-.99-.67,.2-1.31,.31-1.88,.58-1.71,.8-3.38,1.69-5.08,2.5-1.83,.87-3.69,1.67-5.54,2.52-1.54,.71-3.08,1.44-4.62,2.17-2.56,1.21-5.1,2.46-7.67,3.64-.77,.35-1.6,.58-2.41,.82-.25,.07-.61,.1-.81-.03-.63-.41-1.31-.81-1.76-1.37-.89-1.1-.71-1.64,.72-2.53,.11,.37,.25,.69,.3,1.03,.18,1.19,.44,1.51,1.28,1.48,.97-.03,1.77-.73,1.83-1.65,.08-1.29-.63-2.2-1.65-2.77-2.12-1.19-4.4-1.94-6.85-2.06-2.76-.14-5.49,0-8.08,1.11-3.83,1.63-6.4,4.29-7.51,8.45-.6,2.24,.2,4.19,.47,6.26,.86,.99,1.65,2.06,2.61,2.93,.82,.75,1.86,1.27,2.79,1.91,1.89,1.3,3.99,2.05,6.25,2.41,.09,.01,.19,.03,.27,.08,1.83,1.12,3.86,.66,5.82,.74,.61,.03,1.23-.06,1.85-.04,.72,.02,1.4,.03,2.01-.48,.24-.2,.6-.28,.92-.35,2.77-.68,5.08-2.16,7.01-4.22,.78-.83,1.41-1.81,2.24-2.9,0,.39,.11,.74-.02,.93-.64,.98-1.24,2.01-2.05,2.84-1.05,1.06-2.17,2.17-3.48,2.84-1.22,.61-2.44,1.4-3.91,1.5-.6,.04-1.2,.23-1.76,.45-1.7,.65-3.47,.58-5.2,.41-2.82-.28-5.64-.7-8.23-1.94-3.01-1.44-5.69-3.24-7.35-6.34-1.39-2.58-2.39-5.23-2.22-8.17,.09-1.5,.44-2.98,.76-4.46,.46-2.15,1.39-4.1,2.66-5.89,1.96-2.75,4.32-5.01,7.58-6.16,1.16-.41,2.3-.84,3.46-1.25,4.18-1.49,8.39-.96,12.6-.15,3.25,.63,6.06,2.32,9.02,3.68,1.84,.85,3.72,1.62,5.63,2.31,.58,.21,1.35,.22,1.95,.03,2.57-.81,5.1-1.71,7.65-2.6,.49-.17,.75-.51,.75-1.07,0-2.51,.03-5.01,.02-7.52-.01-3.22-.06-6.44-.07-9.66,0-1.75,.07-3.5,.07-5.25,0-1.36-.09-2.72-.14-4.26-.47,0-.88-.07-1.25,.02-.5,.12-.98,.34-1.46,.55-5.3,2.3-10.6,4.6-15.89,6.91-2.09,.91-3.01,2.14-2.69,4.4,.29,2.06,.05,4.07-.14,6.06-.22,2.34,.33,4.19,2.23,5.6,.15,.11,.25,.27,.36,.4-.21,.57-.6,.4-.95,.28-2.89-1.03-5.77-2.08-8.66-3.1-1.51-.54-3.04-1.02-4.55-1.55-.38-.13-.74-.34-1.17-.54,1.78-1.19,1.79-1.19,1.73-3.42-.08-2.97-.22-5.95-.24-8.92-.03-4.82,.02-9.65,.02-14.47,0-4.21-.03-8.42-.04-12.63,0-.52-.08-1.06,.01-1.56,.36-1.92-.15-3.76-.46-5.62-.22-1.32,.01-1.89,1.21-2.42,2.57-1.14,5.16-2.26,7.72-3.43,1.07-.49,2.08-1.09,3.13-1.6,.29-.14,.66-.14,1.14-.24-.14,.33-.16,.5-.26,.57-1.37,1.09-1.57,2.53-1.53,4.19,.15,6.1,.18,12.19,.28,18.29,.04,2.46,.16,4.92,.22,7.38,.06,2.69,.09,5.39,.14,8.09,.03,1.84,.68,2.35,2.5,1.93,.37-.08,.74-.17,1.09-.32,4.79-2.11,9.64-4.12,14.35-6.4,3.84-1.85,3.37-1.47,3.41-5.16,.03-2.75-.04-5.49-.05-8.24,0-4.64,0-9.27,.02-13.91,.01-3.07,.04-6.13,.11-9.2,.06-2.26-1.02-3.98-2.52-5.5-.49-.5-1.1-.88-1.64-1.34-.2-.17-.34-.39-.6-.68,.85-.44,1.57-.39,2.18,.12,.86,.73,1.76,1.46,2.46,2.34,1.54,1.96,3.6,2.95,5.88,3.74,1.62,.56,3.25,.55,4.89,.55,1.79,0,3.21,.69,4.34,2.02,1.05,1.23,.79,3.2-.54,4.13-.54,.38-1.1,.49-1.9-.11Z"/><path class="cls-1" d="M302.9,443.94l-.9-1.37c1.77-1.53,3.41-3.01,5.12-4.41,2.19-1.81,4.32-3.68,6.09-5.9,1.95-2.45,2.87-5.28,2.86-8.41,0-1.99,0-3.98,0-5.97,0-1.71-.13-1.8-1.89-1.8-1.78,0-3.5,.38-5.06,1.2-.8,.42-1.4,1.23-2.08,1.88-.13,.12-.17,.33-.26,.5-.2,.39-.44,.86-.94,.59-.25-.14-.47-.62-.45-.92,.09-1.03,.27-2.06,.47-3.07,.12-.6,.41-1.17,.51-1.77,.21-1.31,.99-2.32,1.63-3.42,1.19-2.04,3.07-3.13,5.21-3.86,.52-.18,1.11-.16,1.67-.21,.92-.08,1.14-.29,1.19-1.22,.06-1.13,0-2.28,.19-3.39,.6-3.31,2.72-5.63,5.28-7.6,.6-.46,1.26-.83,1.85-1.3,.34-.27,.58-.65,1.11-1.26-.95,0-1.54-.07-2.11,.01-1.02,.14-2.03,.36-3.03,.58-2.35,.52-4.68,.56-6.93-.42-1.94-.85-3.55-2.17-4.81-3.85-1.47-1.96-2.7-4.09-3.73-6.31-.39-.85-.62-1.78-.84-2.7-.07-.27,.07-.66,.24-.91,.36-.53,.91-.46,1.18,.18,.68,1.6,1.93,2.67,3.31,3.6,.85,.58,1.73,1.2,2.69,1.52,1.01,.33,2.14,.44,3.21,.42,2.4-.05,4.82-.12,7.2-.4,2.29-.27,4.56-.81,6.83-1.21,2.09-.37,4.18-.81,6.29-1.03,1.35-.14,2.7-.25,4.04-.5,1.14-.21,2.28-.15,3.46,.31,1.16,.44,2.52,.31,3.78,.52,3.59,.62,6.76,2.22,9.34,4.72,1.68,1.63,2.83,3.71,3.73,5.94,1.38,3.39,1.8,6.9,1.81,10.5,0,6.11,.08,12.22-.06,18.33-.05,2.34-.53,4.64-1.5,6.86-1.49,3.39-3.83,5.99-6.63,8.31-3.2,2.64-6.79,4.6-10.46,6.46-.92,.47-1.84,.95-2.73,1.49-.72,.43-1.38,.39-2.16,.18-2.36-.65-4.75-1.22-7.12-1.82-1.42-.36-2.86-.64-4.24-1.1-2.46-.83-5.02-.82-7.55-1.12-1.59-.19-3.19-.37-4.79-.42-1.75-.05-3.5,.04-5.18,.66-.26,.1-.6,.15-.75,.34-.7,.93-1.73,1.27-2.72,1.71-.42,.19-.79,.5-1.39,.9Zm47.31-21.91h.08c0-2.18,0-4.35,0-6.53,0-.51,.12-1.18-.49-1.35-.36-.1-.85,.21-1.26,.39-.43,.18-.83,.44-1.25,.63-2.62,1.17-5.24,2.32-7.86,3.5-1.11,.5-2.19,1.06-3.29,1.59-1.44,.69-2.89,1.39-4.34,2.06-.63,.29-.9,.72-.9,1.44-.02,2.79-.1,5.59-.13,8.38-.01,1.26,.32,1.55,1.49,1.85,4.26,1.06,8.5,2.15,12.75,3.24,.22,.06,.43,.2,.64,.3,1.24,.61,1.7,.48,2.54-.57,1.25-1.56,1.49-3.44,1.72-5.31,.2-1.68,.24-3.38,.3-5.08,.05-1.51,0-3.03,0-4.54Zm-19.4-16.19h.05c0,1.71,0,3.41,0,5.11,.01,1.51,.31,1.73,1.65,1.16,.77-.33,1.51-.75,2.27-1.09,1.93-.85,3.87-1.68,5.81-2.51,.86-.37,1.74-.71,2.59-1.09,1.97-.88,3.91-1.84,5.91-2.64,.8-.32,1.17-.78,1.13-1.56-.05-.89-.18-1.78-.29-2.66-.29-2.32-.87-4.56-2.48-6.34-1.27-1.41-2.79-2.47-4.68-3.03-3.13-.92-6.32-1.06-9.54-.95-.51,.02-1.02,.17-1.54,.24-.65,.09-.87,.48-.86,1.08,.02,.85-.01,1.7,.02,2.55,.07,1.65,.26,3.3,.25,4.95-.02,2.27-.2,4.53-.31,6.79Zm-1.77,27.28c.5-.39,.48-.95,.47-1.53-.05-4.36-.13-8.71-.13-13.07,0-6.01,.04-12.03,.07-18.04,.01-2.75,.04-5.49,.01-8.24,0-.39-.17-1.04-.39-1.1-.38-.11-1,.02-1.27,.29-.82,.82-1.56,1.67-1.55,3.03,.07,6.58,.05,13.17,.05,19.75,0,2.5,.08,4.98-.8,7.41-.5,1.39-1.07,2.72-1.95,3.89-1.77,2.36-3.82,4.45-6.31,6.06-.46,.3-.66,.63-.41,1.14,.95,.38,1.72,0,2.48-.39,.97-.49,1.92-.61,3.01-.37,2.21,.47,4.45,.79,6.72,1.18Zm1.94-15.64h-.09c0,.8-.02,1.61,0,2.41,.03,.98,.48,1.23,1.38,.79,.08-.04,.15-.11,.24-.15,1.55-.78,3.08-1.59,4.65-2.31,1.84-.84,3.73-1.56,5.58-2.38,2.14-.94,4.26-1.95,6.41-2.87,.59-.25,1.02-.62,1.04-1.21,.06-1.74,.08-3.49,.02-5.24-.03-.69-.71-.98-1.23-.52-.71,.62-1.57,.8-2.38,1.16-2.87,1.28-5.69,2.66-8.55,3.96-1.76,.8-3.54,1.53-5.32,2.29-1.49,.64-1.77,1.05-1.75,2.65,0,.47,0,.95,0,1.42Z"/><path class="cls-1" d="M495.46,400c-.95,.8-1.83,1.5-2.66,2.27-.21,.19-.31,.56-.36,.87-.06,.32-.02,.66-.02,.99,0,10.71,.02,21.42-.03,32.12,0,1.19,.33,1.97,1.35,2.55,.61,.34,1.15,.81,1.81,1.29-2.22,2.07-4.35,4.07-6.57,6.15-2.46-1.88-4.9-3.73-7.45-5.67,1.8-1.68,1.71-3.85,1.71-5.97,0-9.95-.02-19.9,.03-29.85,0-1.15-.35-1.84-1.31-2.4-1.18-.68-2.31-1.47-3.51-2.24-.9,.73-1.76,1.39-2.57,2.11-.22,.19-.32,.55-.39,.86-.07,.27-.02,.57-.02,.85,0,10.8,.02,21.61-.03,32.41,0,1.13,.3,1.89,1.28,2.44,.61,.35,1.15,.81,1.87,1.33-2.23,2.07-4.36,4.06-6.59,6.13-2.44-1.87-4.86-3.72-7.42-5.68,1.77-1.58,1.65-3.6,1.65-5.59,0-10.42-.02-20.85,.03-31.27,0-1.08-.24-1.83-1.24-2.27-.82-.36-1.64-.72-2.45-1.1-.8-.38-1.59-.79-2.41-1.2,.21-1.3,1.34-1.68,2.22-2.64,.06,.91,.11,1.58,.17,2.57,2.06-2.03,3.93-3.87,5.83-5.74,2.73,2,5.43,3.98,8.16,5.98,2.45-2.06,4.8-4.04,7.15-6.02,3.2,2.11,6.31,4.16,9.5,6.27,2.55-2.14,5.01-4.2,7.49-6.28,3.44,2.3,6.82,4.55,10.15,6.78,0,.18,.04,.31,0,.36-1.24,1.29-1.45,2.87-1.44,4.59,.04,10.28,.04,20.56-.01,30.85,0,1.22,.35,1.97,1.45,2.43,1.07,.45,2.13,.92,3.35,1.45-2.28,2.17-4.57,4.34-6.86,6.51-2.95-2.06-5.82-4.06-8.81-6.14,1.89-1.4,1.64-3.37,1.65-5.24,.03-5.83,.01-11.66,.01-17.48,0-4.22-.04-8.43,.03-12.65,.02-1.14-.34-1.86-1.29-2.43-1.17-.71-2.28-1.5-3.48-2.29Z"/><path class="cls-1" d="M445.9,385.4c.73-1.15,1.23-2.11,1.9-2.93,.68-.84,1.44-1.66,2.33-2.26,.84-.56,1.46-1.72,2.94-1.35-.09,.41-.1,.83-.28,1.18-1.12,2.25-1.15,4.65-1.09,7.08,.05,1.74-.03,3.49-.03,5.23,0,6.35,.04,12.69,.04,19.04,0,5.97-.01,11.93-.08,17.9-.01,1.28,.3,2.05,1.56,2.65,2.07,.99,4.01,2.26,6.18,3.51-.19,.36-.34,.86-.66,1.21-1.94,2.07-3.88,4.14-5.88,6.15-1.15,1.16-1.38,1.1-2.6,.08-2.51-2.09-5.01-4.18-7.54-6.23-1.22-.99-1.56-.92-2.55,.28-1.68,2.05-3.35,4.1-5.02,6.16-.73,.9-1.22,.94-2.35,.53-1.77-.63-3.58-1.15-5.38-1.69-1.04-.31-2.09-.58-3.14-.87-2.03-.58-4.06-1.19-6.1-1.74-.82-.22-1.67-.3-2.51-.45-.93-.16-1.86-.3-2.79-.5-1.21-.25-1.99-.03-2.48,1.06-.71,1.59-1.28,3.24-1.9,4.87-.2,.51-.38,1.02-.58,1.54-1.84-.9-2.27-1.89-1.51-3.6,.61-1.37,1.29-2.73,2.09-4,1.09-1.76,2.31-3.45,3.49-5.15,1.61-2.33,3.26-4.63,4.86-6.97,1.97-2.89,3.88-5.81,5.85-8.7,2.34-3.44,4.73-6.84,7.07-10.28,1.64-2.43,3.2-4.91,4.83-7.34,.98-1.45,2.01-2.86,3.06-4.26,.49-.65,.57-1.23,.13-1.95-.83-1.36-1.6-2.76-2.38-4.15-1.3-2.29-3.44-3.45-5.8-4.28-3.45-1.21-6.96-.93-10.31,.18-3.84,1.28-6.6,3.98-7.62,7.96-.84,3.3-.62,6.64,.96,9.82,1.16,2.32,2.74,4.16,5.07,5.34,.53,.27,1.08,.51,1.63,.76-.78,1.42-2.23,1.8-3.34,1.02-1.33-.93-2.47-2.04-3.49-3.28-1.12-1.37-1.84-2.94-2.28-4.65-.49-1.88-.97-3.76-.86-5.71,.07-1.27,.18-2.55,.4-3.8,.59-3.24,1.69-6.28,3.84-8.85,1.84-2.19,3.98-3.98,6.61-5.21,3.03-1.42,6.18-2.01,9.5-1.85,3.23,.16,6.41,.63,9.25,2.25,2.05,1.17,3.96,2.58,5.42,4.5,.42,.55,.91,1.05,1.54,1.76Zm-28.96,45.02c1.05,.1,2.14,.12,3.19,.33,3.37,.7,6.74,1.45,10.09,2.22,1.38,.32,2.8,.59,4.08,1.15,1.34,.58,2.71,.8,4.11,.98,1.97,.25,2.96-.59,3.04-2.57,.05-1.42,.02-2.84,.02-4.26,0-2.22,.01-4.45-.02-6.67-.02-1.1-.28-1.32-1.36-1.29-.43,0-.85,.04-1.28,.03-4.78-.02-9.56-.02-14.34-.1-1.14-.02-1.8,.37-2.42,1.32-1.57,2.41-3.26,4.74-4.91,7.1-.37,.53-.59,1.07-.2,1.76Zm10.28-16.84c.56,.71,1.21,.58,1.8,.58,3.69,0,7.38,0,11.06-.01,1.23,0,1.38-.16,1.38-1.39,0-2.17,0-4.34,0-6.51,0-1.79,0-3.59,0-5.38,0-1.89,0-3.78,0-5.67,0-.56-.02-1.14-.77-1.36-4.21,6.77-8.78,13.24-13.47,19.75Z"/><path class="cls-1" d="M178.8,403.32c5.23-3.37,10.32-6.65,15.54-10.02,3.98,2.43,8.08,4.92,12.3,7.5-1.64,1.45-1.63,3.36-1.64,5.25,0,9.38-.04,18.75,.03,28.13,.01,1.54-.4,2.4-1.78,3.23-4.33,2.62-8.53,5.46-12.77,8.22-.28,.18-.55,.37-.86,.58-4.11-2.59-8.21-5.17-12.42-7.82,1.55-1.14,1.61-2.69,1.61-4.28,0-9.76,0-19.51,0-29.27v-1.53Zm9.26-3.67v1.77c0,9.47,0,18.94,0,28.42,0,1.52,.02,3.03,0,4.55,0,.57,.15,.98,.66,1.3,2.18,1.33,4.34,2.69,6.52,4.03,.1,.06,.26,.03,.58,.05v-1.55c0-8.48,0-16.96,0-25.43,0-2.51,0-5.02,0-7.53,0-.6-.07-1.09-.66-1.44-2.15-1.3-4.27-2.64-6.4-3.95-.15-.09-.34-.1-.7-.2Z"/><path class="cls-1" d="M534.4,393.3c4.01,2.44,8.08,4.93,12.27,7.49-1.78,1.65-1.61,3.81-1.61,5.93,0,9.38-.02,18.75,.02,28.13,0,1.07-.3,1.66-1.25,2.24-4.76,2.92-9.46,5.94-14.33,9.02-3.91-2.46-8.02-5.04-12.25-7.7,1.61-1.2,1.6-2.86,1.6-4.53,0-9.66,0-19.32,0-28.98v-1.57c5.24-3.38,10.36-6.68,15.54-10.02Zm-6.28,6.36c0,.62,0,1.13,0,1.63,0,10.8,0,21.6,0,32.4,0,.28-.06,.59,.02,.85,.12,.37,.25,.86,.54,1.05,2.23,1.43,4.5,2.8,6.76,4.18,.06,.04,.17-.02,.44-.07v-27.48c0-2.32,0-4.64,0-6.96,0-.6-.07-1.08-.66-1.44-2.15-1.3-4.27-2.64-6.4-3.95-.15-.09-.34-.1-.69-.2Z"/><path class="cls-1" d="M270.83,393.29c5.64,2.44,11.19,4.85,16.88,7.31-1.77,1.64-1.59,3.76-1.6,5.83,0,9.8,.02,19.6-.03,29.4,0,1.22,.38,1.99,1.45,2.46,1.03,.45,2.06,.9,3.24,1.41-2.19,2.14-4.43,4.33-6.7,6.54-2.8-2.04-5.51-4.01-8.34-6.06-2.36,2.02-4.69,4.01-7.07,6.05-3.26-2.38-6.49-4.73-9.86-7.2,1.76-1.5,1.58-3.52,1.58-5.5,0-3.08,0-6.15,0-9.26,2.6-1.4,5.16-2.79,7.91-4.27-.53-.32-.84-.51-1.15-.68-3.66-2-5.48-5.1-5.49-9.26-.01-3.39,1.03-6.42,3.14-9.08,1.47-1.85,2.98-3.68,4.46-5.53,.53-.66,1-1.37,1.58-2.17Zm5.97,12.02c-1.64-.91-3.25-1.91-4.95-2.71-2.8-1.31-5.56-.36-6.91,2.44-.54,1.12-.84,2.41-1.03,3.65-.48,3.32,.6,6.12,3.34,8.07,2.88,2.06,6.06,2.74,9.55,1.45v-12.91Zm-7.19,15.05c-.15,.84-.42,1.65-.43,2.47-.05,4.35-.04,8.7-.02,13.05,0,.34,.13,.81,.36,.98,1.28,.95,2.61,1.83,3.95,2.75,.87-.74,1.6-1.42,2.39-2.01,.75-.56,1.03-1.21,1.02-2.16-.05-4.54-.02-9.08-.02-13.62,0-.42-.03-.84-.05-1.26-1.18,.12-2.29,.34-3.4,.31-1.17-.03-2.33-.31-3.8-.52Z"/><path class="cls-1" d="M121.78,445.26c.31-9.08,4.65-16.29,10.26-23.15-3.2-1.87-6.32-3.68-9.58-5.58,1.67-1.18,1.68-2.84,1.68-4.52,0-3.41,0-6.82,0-10.23v-1.68c4.81-1.58,9.25-3.86,13.44-6.85,2.94,2.26,5.78,4.61,9.02,6.53,.88-1.14,.42-2.56,1.01-3.7,.13,.03,.27,.03,.39,.09q1.65,.89,1.2,2.75c-.8,3.26-2.28,6.22-4.06,9.02-1.29,2.04-2.7,4-4.16,6.14,2.82,1.78,5.9,3.2,8.73,4.94-.01,.18,.02,.32-.03,.36-1.17,1.09-1.42,2.47-1.4,4.01,.04,4.45,.01,8.9,.01,13.36v1.59c-5.25,2.07-10.08,4.76-14.67,7.88-1.48-.86-2.87-1.76-4.35-2.49-1.47-.73-3.03-1.29-4.56-1.93-.86,1.37-.37,2.75-.68,4.15l-2.25-.69Zm14.39-24.43c-3.59,4.27-7,8.77-9.7,14.04,4.71,.53,8.7,2.35,12.63,5.15v-1.82c0-4.55,0-9.1,0-13.64q0-2.68-2.49-3.68c-.08-.03-.19-.02-.44-.04Zm-2.69-21.77c-.08,.67-.15,1.02-.16,1.38-.02,1.18,0,2.36,0,3.55,0,2.84-.02,5.68,.02,8.51,0,.43,.09,1.06,.37,1.25,.92,.62,1.95,1.08,2.97,1.62,2.57-2.84,4.68-5.76,6.44-9.07-3.61-1.89-6.57-4.43-9.64-7.24Z"/><path class="cls-1" d="M392.32,436.06l1.28,1.37c-2.91,2.96-5.74,5.85-8.56,8.72-5.19-2.92-10.33-5.81-15.62-8.78,1.81-1.55,1.59-3.64,1.59-5.66,0-9.8,0-19.6,0-29.41v-1.82c5.66-1.7,11-4.07,16.04-7.24,3.08,5.81,6.13,11.56,9.25,17.44-.46,.32-.97,.74-1.53,1.06-3.97,2.2-7.96,4.38-11.93,6.58-.82,.45-1.93,.76-2.35,1.47-.43,.71-.2,1.83-.2,2.77-.01,3.22,.02,6.44-.02,9.66-.01,.85,.21,1.41,.99,1.83,1.71,.91,3.38,1.91,5.08,2.83,.54,.29,1.13,.49,1.71,.68,1.32,.43,2.52,.31,3.5-.79,.19-.21,.42-.38,.78-.7Zm-11.94-18.96c2.29-.75,6.87-3.21,7.85-4.19-2.54-4.54-5.09-9.07-7.63-13.61l-.22,.06v17.73Z"/><path class="cls-1" d="M209.73,399.89c2.25-2.18,4.48-4.34,6.8-6.6,2.4,2.04,4.81,4.08,7.31,6.19,2.46-1.86,4.48-4.11,6.7-6.12,2.52,3.34,4.98,6.61,7.46,9.9-1.84,2.3-3.73,4.65-5.72,7.14-1.07-.83-1.78-1.93-2.56-2.97-.79-1.06-1.55-2.16-2.26-3.27-.71-1.11-1.34-2.27-2.07-3.51-1.14,.87-1.9,1.72-1.89,3.35,.08,9.85,.06,19.7,.02,29.55,0,1.12,.26,1.87,1.31,2.37,1.07,.51,2.04,1.21,3.1,1.72,1.87,.9,2.44,.76,3.85-.76,.22-.24,.34-.57,.55-.95l1.71,1.52c-3.03,2.88-5.97,5.67-8.93,8.49-3.9-2.17-8.07-4.48-12.3-6.83,.1-.2,.17-.43,.32-.58,.8-.84,1.04-1.9,1.13-3,.05-.66,.05-1.33,.05-1.99,0-9.95-.02-19.89,.03-29.84,0-1.16-.34-1.9-1.34-2.37-1.05-.49-2.12-.94-3.28-1.46Z"/><path class="cls-1" d="M572.57,436.1c.56,.5,1,.9,1.54,1.37-3.03,2.89-5.96,5.68-8.91,8.5-3.93-2.19-8.09-4.5-12.25-6.82,0-.1-.02-.22,.02-.27,1.18-1.27,1.41-2.84,1.41-4.48,0-5.49,0-10.99,0-16.48,0-4.83-.02-9.66,.02-14.49,0-.85-.2-1.47-.98-1.84-1.14-.55-2.29-1.09-3.55-1.69,.05,.13,.03,.09,.02,.05,0-.05-.02-.11,0-.14,2.2-2.14,4.41-4.28,6.7-6.5,2.41,2.04,4.82,4.09,7.31,6.19,2.46-1.88,4.49-4.11,6.69-6.12,2.52,3.35,4.99,6.62,7.47,9.91-1.85,2.31-3.73,4.66-5.72,7.15-1.07-.84-1.79-1.95-2.56-2.98-.79-1.06-1.54-2.16-2.26-3.27-.71-1.11-1.34-2.27-2.06-3.5-1.17,.87-1.9,1.75-1.89,3.36,.08,9.85,.06,19.7,.01,29.55,0,1.13,.28,1.86,1.32,2.36,1.06,.51,2.04,1.21,3.1,1.72,1.87,.9,2.44,.75,3.85-.77,.19-.21,.38-.42,.71-.8Z"/><path class="cls-1" d="M165.53,446c-3.74-2.16-7.71-4.45-11.8-6.81,1.55-1.34,1.57-3.15,1.57-4.95,0-9.76,0-19.52,0-29.28,0-.33-.04-.66-.07-1.17-1.23-.06-2.45-.12-3.95-.2,.37-.42,.5-.61,.67-.74,2.47-1.83,4.36-4.2,6.06-6.72,2.16-3.19,3.92-6.59,5.39-10.15,.24-.59,.25-.59,.88-1.07,.39,1.13,.15,2.26,.19,3.36,.04,1.14,0,2.27,0,3.41v6.79h9.26c-.77,1.72-1.45,3.21-2.11,4.71-.22,.49-.62,.51-1.06,.51-1.52,0-3.03,0-4.55,0-.46,0-.92,.05-1.46,.08-.03,.55-.07,1.01-.07,1.47,0,9.57,0,19.14-.02,28.71,0,.95,.2,1.62,1.11,2.04,.64,.3,1.22,.73,1.84,1.07,2.47,1.33,3.67,1.17,5.82-.8l1.23,1.11c-2.98,2.87-5.9,5.68-8.94,8.61Z"/><path class="cls-1" d="M106.26,402.26c-1.38-.93-2.73-1.9-4.49-1.93,.29-.94,4.31-5.02,6.85-7l8.42,6.04c-.46,.82-1,1.5-1.23,2.28-.23,.8-.21,1.68-.21,2.53-.01,10.61,0,21.22-.03,31.83,0,1.03,.26,1.71,1.22,2.11,1.12,.47,2.21,.99,3.49,1.57-2.29,2.18-4.57,4.34-6.9,6.56-2.9-2.05-5.73-4.06-8.7-6.16,1.57-1.19,1.64-2.79,1.64-4.42,0-10.85,0-21.69,0-32.54,0-.28-.04-.56-.06-.87Z"/><path class="cls-1" d="M257.78,439.67c-2.34,2.22-4.62,4.39-6.93,6.57-2.9-2.05-5.71-4.04-8.65-6.12,1.75-1.46,1.63-3.44,1.64-5.36,.01-10.33-.02-20.65,.03-30.98,0-1.15-.31-1.89-1.35-2.33-1.07-.45-2.14-.92-3.23-1.38,.25-.7,3.77-4.28,6.79-6.76,2.81,2.01,5.64,4.04,8.59,6.15-1.7,1.38-1.65,3.25-1.65,5.09,0,10.42,.02,20.84-.03,31.26,0,1.15,.31,1.89,1.35,2.33,1.08,.46,2.15,.95,3.44,1.51Z"/><path class="cls-1" d="M64.79,381.94c.12,.82-.26,.9-.62,1.04-1.13,.42-2.27,.82-3.38,1.31-2.06,.91-4.1,1.85-6.12,2.84-1.48,.72-2.94,1.49-4.36,2.32-.47,.27-.86,.76-1.14,1.24-.5,.86-.64,1.78,.08,2.63,.33,.39,.58,.76,.03,1.28-1.08-.49-1.81-1.23-1.87-2.51-.05-.96-.22-1.86-.81-2.67-.66-.9-1.51-1.41-2.61-1.51-1.91-.17-3.67,.24-5.22,1.41-1.5,1.13-2.8,2.47-3.32,4.29-.49,1.74-.66,3.56,.73,5.08,.96,1.05,2.13,1.47,3.55,1.22,.43-.07,.88-.05,1.45-.08-1.27,1.74-1.88,1.96-3.55,1.41-2.1-.69-3.4-2.31-4.64-4-.16-.22-.24-.52-.27-.8-.37-3.28-.01-6.37,1.88-9.24,2.36-3.59,5.69-5.83,9.52-7.53,1.68-.75,3.46-.92,5.25-1.12,1.49-.16,2.92,.08,4.28,.72,1.62,.77,3.2,1.65,4.87,2.27,1.03,.38,2.2,.44,3.32,.5,.97,.06,1.95-.08,2.96-.14Z"/><path class="cls-1" d="M246.5,388.77c-.96-1.04-1.87-2.04-2.82-3.07,3.38-3.75,6.69-7.41,10.12-11.2,1.27,2.1,2.22,4.33,3.22,6.7-3.35,2.71-6.84,5.18-10.52,7.57Z"/><path class="cls-1" d="M109.03,388.79l-2.81-3.1c3.36-3.72,6.67-7.39,10.1-11.19,1.28,2.13,2.28,4.34,3.21,6.73-3.34,2.67-6.81,5.13-10.49,7.55Z"/></svg>